<svg width="10" height="9" viewBox="0 0 10 9" fill="none" xmlns="http://www.w3.org/2000/svg">
  <path d="M5.55146 8.0817C5.40299 8.34314 5.12351 8.5 4.81784 8.5C4.51216 8.5 4.23268 8.34314 4.08421 8.0817L0.42483 1.76362C0.276359 1.50218 0.276359 1.17974 0.42483 0.9183C0.573302 0.656862 0.852769 0.5 1.15845 0.5H8.46849C8.77416 0.5 9.05365 0.656862 9.20212 0.9183C9.35059 1.17974 9.35059 1.50218 9.20212 1.76362L5.55146 8.0817Z" fill="#4996D1"/>
  <path d="M5.55146 8.0817C5.40299 8.34314 5.12351 8.5 4.81784 8.5C4.51216 8.5 4.23268 8.34314 4.08421 8.0817L0.42483 1.76362C0.276359 1.50218 0.276359 1.17974 0.42483 0.9183C0.573302 0.656862 0.852769 0.5 1.15845 0.5H8.46849C8.77416 0.5 9.05365 0.656862 9.20212 0.9183C9.35059 1.17974 9.35059 1.50218 9.20212 1.76362L5.55146 8.0817Z" fill="url(#paint0_linear_9_903)" fill-opacity="0.4"/>
  <defs>
    <linearGradient id="paint0_linear_9_903" x1="2.30278" y1="0.499987" x2="8.20641" y2="0.541325" gradientUnits="userSpaceOnUse">
      <stop stop-color="#6EACF6"/>
      <stop offset="0.420549" stop-color="#A685F3"/>
      <stop offset="0.628891" stop-color="#B366D7"/>
      <stop offset="0.858067" stop-color="#5A54D1"/>
    </linearGradient>
  </defs>
</svg>
