<svg width="15" height="15" viewBox="0 0 15 15" fill="none" xmlns="http://www.w3.org/2000/svg">
<path fill-rule="evenodd" clip-rule="evenodd" d="M3.44995 1.73217C3.44995 2.68882 2.67765 3.46433 1.72498 3.46433C0.772298 3.46433 0 2.68882 0 1.73217C0 0.775517 0.772298 0 1.72498 0C2.67765 0 3.44995 0.775517 3.44995 1.73217ZM5.07877 14.3868V4.77681H7.93111V6.09097H7.97131C8.36787 5.33651 9.33757 4.53931 10.7842 4.53931C13.7974 4.53931 14.3524 6.52877 14.3524 9.11752V14.3876H11.3795V9.71364C11.3795 8.59976 11.3605 7.16606 9.83345 7.16606C8.28509 7.16606 8.05015 8.38047 8.05015 9.63447V14.3868H5.07877ZM3.21269 4.77681H0.236572V14.3868H3.21269V4.77681Z" fill="white"/>
</svg>
