<svg width="81" height="34" viewBox="0 0 81 34" fill="none" xmlns="http://www.w3.org/2000/svg">
<path d="M15.2191 4.75452C14.2815 5.86917 12.7813 6.74833 11.2811 6.62274C11.0936 5.1156 11.8281 3.51427 12.6875 2.52521C13.6251 1.37916 15.266 0.562797 16.5942 0.5C16.7505 2.06993 16.1411 3.60847 15.2191 4.75452ZM16.5786 6.92103C14.4065 6.79543 12.5469 8.16127 11.5155 8.16127C10.4685 8.16127 8.89022 6.98383 7.17127 7.01522C4.93664 7.04662 2.85828 8.31827 1.71753 10.3435C-0.626493 14.3939 1.10808 20.3911 3.37397 23.6879C4.48347 25.3206 5.81174 27.1104 7.56194 27.0476C9.21838 26.9848 9.87471 25.9643 11.8749 25.9643C13.8908 25.9643 14.469 27.0476 16.2192 27.0162C18.0319 26.9848 19.1726 25.3834 20.2822 23.7507C21.5479 21.8982 22.0636 20.0928 22.0949 19.9986C22.0636 19.9672 18.5945 18.6327 18.5632 14.6137C18.532 11.254 21.2979 9.65271 21.4229 9.55852C19.8602 7.23501 17.4225 6.98383 16.5786 6.92103ZM29.1269 2.36822V26.8435H32.9086V18.4757H38.1436C42.9254 18.4757 46.2851 15.1789 46.2851 10.4063C46.2851 5.63368 42.9879 2.36822 38.2686 2.36822H29.1269ZM32.9086 5.57088H37.2685C40.5501 5.57088 42.4253 7.32921 42.4253 10.422C42.4253 13.5147 40.5501 15.2888 37.2528 15.2888H32.9086V5.57088ZM53.1922 27.0319C55.5674 27.0319 57.7708 25.823 58.7709 23.9077H58.8491V26.8435H62.3495V14.6608C62.3495 11.1284 59.5367 8.85205 55.208 8.85205C51.1919 8.85205 48.2229 11.1598 48.1135 14.3311H51.5201C51.8014 12.824 53.1922 11.8349 55.0986 11.8349C57.4114 11.8349 58.7084 12.9182 58.7084 14.912V16.2621L53.9891 16.5447C49.598 16.8116 47.2227 18.617 47.2227 21.7569C47.2227 24.9282 49.6761 27.0319 53.1922 27.0319ZM54.2079 24.1275C52.1921 24.1275 50.9107 23.1541 50.9107 21.6627C50.9107 20.1242 52.1452 19.2293 54.5048 19.088L58.7084 18.8211V20.2027C58.7084 22.4948 56.7707 24.1275 54.2079 24.1275ZM67.0219 33.5C70.7098 33.5 72.4444 32.0871 73.9602 27.8011L80.6016 9.08754H76.7574L72.3037 23.5466H72.2256L67.772 9.08754H63.8184L70.2254 26.9063L69.8816 27.9895C69.3034 29.8264 68.3658 30.5328 66.6937 30.5328C66.3968 30.5328 65.8186 30.5014 65.5842 30.47V33.4058C65.803 33.4686 66.7406 33.5 67.0219 33.5Z" fill="black"/>
</svg>
