<svg width="88" height="34" viewBox="0 0 88 34" fill="none" xmlns="http://www.w3.org/2000/svg">
<path d="M41.734 16.6139V26.5006H38.5459V2.08489H47.0012C48.0105 2.06415 49.0139 2.24025 49.9536 2.60304C50.8934 2.96583 51.7508 3.50811 52.4764 4.1986C53.2093 4.84717 53.7926 5.64256 54.187 6.53134C54.5815 7.42011 54.7781 8.38166 54.7634 9.35137C54.7844 10.3263 54.5909 11.2941 54.1961 12.1885C53.8014 13.083 53.2147 13.8828 52.4764 14.5334C50.9978 15.9204 49.1728 16.6133 47.0012 16.612H41.734V16.6139ZM41.734 5.09084V13.6138H47.0804C47.6665 13.6309 48.2498 13.5275 48.793 13.3101C49.3362 13.0927 49.8272 12.7662 50.2348 12.3515C50.6402 11.9637 50.9625 11.4998 51.1826 10.9874C51.4027 10.4749 51.516 9.92424 51.516 9.36793C51.516 8.81161 51.4027 8.26094 51.1826 7.74848C50.9625 7.23602 50.6402 6.77218 50.2348 6.38439C49.8323 5.96088 49.343 5.62637 48.7992 5.40302C48.2553 5.17968 47.6695 5.0726 47.0804 5.08889H41.734V5.09084Z" fill="#5F6368"/>
<path d="M62.1099 9.25C64.4663 9.25 66.3264 9.8695 67.69 11.1085C69.0537 12.3475 69.7349 14.0463 69.7336 16.2048V26.5006H66.6841V24.1823H66.5455C65.2254 26.0915 63.4697 27.046 61.2783 27.046C59.4077 27.046 57.8427 26.5006 56.5833 25.4096C55.9789 24.9089 55.4957 24.2818 55.1689 23.5741C54.8421 22.8664 54.6799 22.0958 54.6942 21.3186C54.6942 19.59 55.3582 18.2152 56.6863 17.1944C58.0143 16.1736 59.7872 15.6619 62.005 15.6593C63.898 15.6593 65.4571 16.0002 66.6821 16.6821V15.9652C66.6857 15.4353 66.5695 14.9113 66.3417 14.4311C66.1139 13.951 65.7804 13.5267 65.3653 13.1891C64.5223 12.4408 63.4236 12.0325 62.2882 12.0455C60.5073 12.0455 59.0981 12.7845 58.0605 14.2625L55.2526 12.5228C56.7972 10.3409 59.0829 9.25 62.1099 9.25ZM57.9853 21.3868C57.9831 21.7859 58.078 22.1798 58.2619 22.5356C58.4458 22.8915 58.7135 23.1989 59.0427 23.4323C59.7478 23.9779 60.6229 24.267 61.5199 24.2505C62.8652 24.2483 64.1547 23.7215 65.1059 22.7855C66.162 21.8076 66.6901 20.6601 66.6901 19.3432C65.696 18.5639 64.3099 18.1743 62.5317 18.1743C61.2367 18.1743 60.1568 18.4815 59.2922 19.0958C58.4189 19.7192 57.9853 20.477 57.9853 21.3868Z" fill="#5F6368"/>
<path d="M87.2383 9.79517L76.5929 33.8641H73.3019L77.2523 25.4424L70.2524 9.79517H73.7177L78.777 21.7956H78.8463L83.7671 9.79517H87.2383Z" fill="#5F6368"/>
<path d="M28.8515 14.4831C28.8527 13.5273 28.7705 12.5731 28.6059 11.6311H15.1606V17.0332H22.8615C22.7039 17.896 22.3704 18.7185 21.881 19.4511C21.3916 20.1836 20.7565 20.8111 20.014 21.2957V24.8023H24.61C27.301 22.3613 28.8515 18.7515 28.8515 14.4831Z" fill="#4285F4"/>
<path d="M15.1603 28.1901C19.0077 28.1901 22.2473 26.9472 24.6096 24.8043L20.0136 21.2976C18.7345 22.1509 17.087 22.6379 15.1603 22.6379C11.4415 22.6379 8.28514 20.1716 7.15645 16.8481H2.42188V20.4619C3.60852 22.785 5.42811 24.7379 7.67751 26.1026C9.9269 27.4672 12.5176 28.19 15.1603 28.1901Z" fill="#34A853"/>
<path d="M7.157 16.8478C6.5603 15.1062 6.5603 13.2203 7.157 11.4787V7.86499H2.42243C1.42418 9.81925 0.904297 11.9761 0.904297 14.1633C0.904297 16.3504 1.42418 18.5073 2.42243 20.4615L7.157 16.8478Z" fill="#FBBC04"/>
<path d="M15.1603 5.6888C17.1935 5.65612 19.1581 6.41189 20.6295 7.79276L24.6987 3.78938C22.1184 1.40503 18.7 0.0959876 15.1603 0.136662C12.5176 0.136781 9.9269 0.85952 7.67751 2.22419C5.42811 3.58886 3.60852 5.54176 2.42188 7.86484L7.15645 11.4786C8.28514 8.15511 11.4415 5.6888 15.1603 5.6888Z" fill="#EA4335"/>
</svg>
