<svg width="116" height="24" viewBox="0 0 116 24" fill="none" xmlns="http://www.w3.org/2000/svg">
<path fill-rule="evenodd" clip-rule="evenodd" d="M0.904297 0H6.69366V23.5489H0.904297V0ZM15.4793 0H21.1417C21.1417 5.10384 19.0088 9.85161 15.2253 13.365L23.2238 23.5489H16.0887L7.40463 12.4866L9.63913 10.9199C13.3463 8.30857 15.4793 4.34421 15.4793 0ZM30.3591 0H24.8998V23.5489H30.3591V0ZM72.8651 9.09204C74.1855 7.40657 76.1661 6.81309 78.2482 6.81309C82.4379 6.81309 85.6627 9.40061 85.6627 13.1988V23.5727H80.4573V14.9792C80.4573 12.6053 79.1369 11.3234 76.8516 11.3234C74.7187 11.3234 72.9413 12.5341 72.9413 15.003V23.5489H67.6852V7.26414H72.8651V9.09204ZM46.8637 7.26414V8.30863C45.391 7.35908 43.6135 6.81309 41.6837 6.81309C36.6054 6.81309 32.4919 10.6588 32.4919 15.4065C32.4919 20.1543 36.6054 24 41.6837 24C43.6135 24 45.391 23.454 46.8637 22.5045V23.5489H52.0691V7.26414H46.8637ZM42.1154 19.5846C39.5 19.5846 37.3925 17.7092 37.3925 15.4065C37.3925 13.1039 39.5 11.2285 42.1154 11.2285C44.7308 11.2285 46.8383 13.1039 46.8383 15.4065C46.8383 17.7092 44.7308 19.5846 42.1154 19.5846ZM60.1438 7.26403V9.37678C61.1849 8.11865 63.1401 7.26403 65.2476 7.26403V12.0118H65.1968C63.1401 12.0118 60.1692 13.3886 60.1692 15.9524V23.5488H54.8115V7.26403H60.1438ZM101.863 7.26414V8.30863C100.39 7.35908 98.6125 6.81309 96.6827 6.81309C91.6043 6.81309 87.4908 10.6588 87.4908 15.4065C87.4908 20.1543 91.6043 24 96.6827 24C98.6125 24 100.39 23.454 101.863 22.5045V23.5489H107.068V7.26414H101.863ZM97.1144 19.5846C94.499 19.5846 92.3915 17.7092 92.3915 15.4065C92.3915 13.1039 94.499 11.2285 97.1144 11.2285C99.7298 11.2285 101.837 13.1039 101.837 15.4065C101.863 17.7092 99.7298 19.5846 97.1144 19.5846ZM110.649 7.35953C110.928 7.35953 111.106 7.50195 111.106 7.73932C111.106 7.90552 111.03 8.02423 110.878 8.09544L111.106 8.59394H110.852L110.649 8.14288H110.395V8.59394H110.167V7.35953H110.649ZM110.395 7.92924H110.649C110.827 7.92924 110.878 7.85802 110.878 7.73932C110.878 7.62066 110.801 7.54945 110.649 7.54945H110.395V7.92924ZM110.572 6.83675C109.887 6.83675 109.328 7.35902 109.328 7.99994C109.353 8.64092 109.887 9.16314 110.572 9.16314C111.258 9.16314 111.816 8.64092 111.816 7.99994C111.816 7.35902 111.258 6.83675 110.572 6.83675ZM110.572 8.9495C110.013 8.9495 109.582 8.52222 109.582 7.99994C109.582 7.47767 110.039 7.05039 110.572 7.05039C111.131 7.05039 111.562 7.47767 111.562 7.99994C111.562 8.52222 111.105 8.9495 110.572 8.9495ZM109.353 20.8428C109.353 19.1573 110.826 17.7805 112.629 17.7805C114.432 17.7805 115.904 19.1336 115.904 20.8428C115.904 22.5282 114.432 23.9051 112.629 23.9051C110.826 23.9051 109.353 22.5282 109.353 20.8428Z" fill="black"/>
</svg>
