<svg width="41" height="26" viewBox="0 0 41 26" fill="none" xmlns="http://www.w3.org/2000/svg">
<path d="M26.0616 3.22485H15.0605V22.7748H26.0616V3.22485Z" fill="#FF5F00"/>
<path d="M15.759 13C15.759 9.02785 17.6449 5.50473 20.5436 3.22505C18.4132 1.56711 15.7241 0.56543 12.7905 0.56543C5.84056 0.56543 0.217773 6.12645 0.217773 13C0.217773 19.8736 5.84056 25.4346 12.7905 25.4346C15.7241 25.4346 18.4132 24.4329 20.5436 22.775C17.6449 20.5299 15.759 16.9722 15.759 13Z" fill="#EB001B"/>
<path d="M40.9045 13C40.9045 19.8736 35.2817 25.4346 28.3318 25.4346C25.3981 25.4346 22.709 24.4329 20.5786 22.775C23.5122 20.4953 25.3632 16.9722 25.3632 13C25.3632 9.02785 23.4773 5.50473 20.5786 3.22505C22.709 1.56711 25.3981 0.56543 28.3318 0.56543C35.2817 0.56543 40.9045 6.16099 40.9045 13Z" fill="#F79E1B"/>
</svg>
