<svg width="148" height="36" viewBox="0 0 148 36" fill="none" xmlns="http://www.w3.org/2000/svg">
<path d="M55.6107 8.1958H47.4697C46.9126 8.1958 46.4388 8.5955 46.3519 9.13862L43.0593 29.7548C42.9939 30.1616 43.3129 30.5283 43.7307 30.5283H47.6173C48.1744 30.5283 48.6482 30.1286 48.7351 29.5843L49.6231 24.0238C49.7088 23.4795 50.1838 23.0799 50.7397 23.0799H53.3168C58.6795 23.0799 61.7745 20.5171 62.5828 15.4386C62.947 13.2167 62.5983 11.471 61.5448 10.2484C60.3877 8.90585 58.3355 8.1958 55.6107 8.1958ZM56.5499 15.7254C56.1047 18.6103 53.8728 18.6103 51.7146 18.6103H50.4861L51.348 13.2226C51.3991 12.897 51.6848 12.6571 52.0181 12.6571H52.5812C54.0513 12.6571 55.4381 12.6571 56.1547 13.4847C56.5821 13.9785 56.713 14.7121 56.5499 15.7254Z" fill="#253B80"/>
<path d="M79.9453 15.6326H76.0468C75.7147 15.6326 75.4278 15.8724 75.3766 16.198L75.204 17.2749L74.9314 16.8846C74.0874 15.6749 72.2055 15.2705 70.327 15.2705C66.019 15.2705 62.3396 18.4928 61.623 23.0129C61.2504 25.2677 61.7801 27.4237 63.0752 28.9272C64.2632 30.3097 65.9631 30.8858 67.9855 30.8858C71.4567 30.8858 73.3815 28.6815 73.3815 28.6815L73.2077 29.7513C73.1423 30.1604 73.4613 30.5272 73.8767 30.5272H77.3884C77.9466 30.5272 78.418 30.1275 78.5061 29.5832L80.6131 16.4061C80.6798 16.0005 80.3619 15.6326 79.9453 15.6326ZM74.5112 23.1257C74.1351 25.3253 72.3673 26.8018 70.1128 26.8018C68.9807 26.8018 68.076 26.4432 67.4951 25.7638C66.919 25.089 66.6999 24.1285 66.8833 23.0587C67.2344 20.878 69.0319 19.3533 71.252 19.3533C72.359 19.3533 73.2589 19.7166 73.8517 20.4019C74.4457 21.0943 74.6814 22.0607 74.5112 23.1257Z" fill="#253B80"/>
<path d="M100.708 15.6323H96.7905C96.4167 15.6323 96.0655 15.8157 95.8537 16.1225L90.4505 23.9825L88.1602 16.4294C88.0162 15.9568 87.5745 15.6323 87.0746 15.6323H83.2249C82.7571 15.6323 82.4321 16.0837 82.5809 16.5187L86.896 29.0246L82.8392 34.6803C82.5202 35.1258 82.8416 35.7383 83.3927 35.7383H87.3055C87.6769 35.7383 88.0245 35.5596 88.2352 35.2587L101.265 16.6845C101.577 16.2401 101.257 15.6323 100.708 15.6323Z" fill="#253B80"/>
<path d="M113.679 8.1958H105.536C104.98 8.1958 104.507 8.5955 104.42 9.13862L101.127 29.7548C101.062 30.1616 101.381 30.5283 101.796 30.5283H105.974C106.363 30.5283 106.695 30.2486 106.755 29.8677L107.69 24.0238C107.775 23.4795 108.25 23.0799 108.806 23.0799H111.382C116.746 23.0799 119.84 20.5171 120.649 15.4386C121.015 13.2167 120.664 11.471 119.61 10.2484C118.454 8.90585 116.403 8.1958 113.679 8.1958ZM114.618 15.7254C114.174 18.6103 111.942 18.6103 109.782 18.6103H108.555L109.418 13.2226C109.469 12.897 109.753 12.6571 110.087 12.6571H110.65C112.119 12.6571 113.507 12.6571 114.224 13.4847C114.651 13.9785 114.781 14.7121 114.618 15.7254Z" fill="#179BD7"/>
<path d="M138.012 15.6326H134.116C133.782 15.6326 133.497 15.8724 133.447 16.198L133.275 17.2749L133.001 16.8846C132.157 15.6749 130.276 15.2705 128.398 15.2705C124.09 15.2705 120.412 18.4928 119.695 23.0129C119.324 25.2677 119.851 27.4237 121.146 28.9272C122.336 30.3097 124.034 30.8858 126.056 30.8858C129.527 30.8858 131.452 28.6815 131.452 28.6815L131.278 29.7513C131.213 30.1604 131.532 30.5272 131.95 30.5272H135.46C136.016 30.5272 136.49 30.1275 136.577 29.5832L138.685 16.4061C138.749 16.0005 138.43 15.6326 138.012 15.6326ZM132.578 23.1257C132.205 25.3253 130.435 26.8018 128.18 26.8018C127.05 26.8018 126.143 26.4432 125.562 25.7638C124.986 25.089 124.769 24.1285 124.95 23.0587C125.304 20.878 127.099 19.3533 129.319 19.3533C130.426 19.3533 131.326 19.7166 131.919 20.4019C132.515 21.0943 132.751 22.0607 132.578 23.1257Z" fill="#179BD7"/>
<path d="M142.608 8.76097L139.267 29.7545C139.201 30.1613 139.52 30.5281 139.936 30.5281H143.295C143.853 30.5281 144.327 30.1284 144.413 29.5841L147.708 8.96904C147.773 8.56229 147.454 8.19434 147.039 8.19434H143.277C142.945 8.19551 142.659 8.43533 142.608 8.76097Z" fill="#179BD7"/>
<path d="M9.25057 34.5345L9.87314 30.6292L8.48635 30.5974H1.86426L6.46627 1.78039C6.48056 1.6934 6.52698 1.61228 6.59483 1.55468C6.66268 1.49707 6.74958 1.46533 6.84005 1.46533H18.0058C21.7127 1.46533 24.2708 2.22711 25.6064 3.73068C26.2326 4.43603 26.6313 5.17312 26.8242 5.98427C27.0265 6.83539 27.0301 7.85227 26.8325 9.09251L26.8182 9.18303V9.97773L27.4444 10.328C27.9717 10.6043 28.3907 10.9205 28.7121 11.2826C29.2478 11.8857 29.5942 12.6522 29.7406 13.5609C29.8918 14.4955 29.8418 15.6076 29.5942 16.8666C29.3085 18.315 28.8466 19.5764 28.2229 20.6085C27.6491 21.5596 26.9182 22.3484 26.0504 22.9597C25.2219 23.5404 24.2375 23.9813 23.1245 24.2634C22.046 24.5408 20.8163 24.6807 19.4676 24.6807H18.5986C17.9773 24.6807 17.3737 24.9017 16.9 25.2979C16.425 25.7023 16.1107 26.2548 16.0143 26.8591L15.9488 27.2106L14.8489 34.0936L14.7989 34.3464C14.7858 34.4263 14.7632 34.4663 14.7299 34.4933C14.7001 34.518 14.6573 34.5345 14.6156 34.5345H9.25057Z" fill="#253B80"/>
<path d="M28.0367 9.2749C28.0034 9.48533 27.9653 9.70046 27.9224 9.92147C26.4499 17.3876 21.4122 19.9668 14.9782 19.9668H11.7023C10.9155 19.9668 10.2524 20.5311 10.1298 21.2976L8.45256 31.8026L7.9776 34.7803C7.89785 35.2835 8.29067 35.7373 8.80492 35.7373H14.6152C15.3032 35.7373 15.8877 35.2435 15.996 34.5734L16.0531 34.2819L17.1471 27.4259L17.2173 27.0497C17.3245 26.3773 17.9101 25.8835 18.5982 25.8835H19.4672C25.0965 25.8835 29.5033 23.6264 30.7913 17.0949C31.3293 14.3664 31.0508 12.0881 29.6271 10.4858C29.1961 10.0026 28.6617 9.60171 28.0367 9.2749Z" fill="#179BD7"/>
<path d="M26.4974 8.6682C26.2724 8.60354 26.0403 8.54476 25.8022 8.49186C25.563 8.44014 25.3177 8.39429 25.0654 8.35432C24.1821 8.21325 23.2143 8.14624 22.1775 8.14624H13.4258C13.2104 8.14624 13.0056 8.19444 12.8223 8.28143C12.4188 8.47305 12.1188 8.85041 12.0462 9.31242L10.1844 20.9577L10.1309 21.2975C10.2535 20.531 10.9165 19.9667 11.7034 19.9667H14.9793C21.4133 19.9667 26.451 17.3863 27.9235 9.92137C27.9675 9.70036 28.0044 9.48523 28.0378 9.2748C27.6652 9.07965 27.2616 8.91272 26.8271 8.77047C26.72 8.73521 26.6093 8.70112 26.4974 8.6682Z" fill="#222D65"/>
<path d="M12.0459 9.31253C12.1185 8.85052 12.4185 8.47316 12.822 8.28272C13.0065 8.19572 13.2101 8.14753 13.4255 8.14753H22.1772C23.214 8.14753 24.1818 8.21453 25.0651 8.35561C25.3174 8.39557 25.5627 8.44142 25.8019 8.49315C26.04 8.54605 26.2721 8.60483 26.4971 8.66949C26.609 8.7024 26.7197 8.73649 26.828 8.77059C27.2625 8.91283 27.6661 9.08094 28.0387 9.27491C28.4767 6.51582 28.0351 4.63724 26.5245 2.93617C24.8591 1.06347 21.8534 0.261719 18.0073 0.261719H6.84153C6.05588 0.261719 5.38569 0.825998 5.26427 1.59365L0.613453 30.707C0.521794 31.283 0.971758 31.8026 1.55981 31.8026H8.45331L10.1841 20.9578L12.0459 9.31253Z" fill="#253B80"/>
</svg>
