<svg width="78" height="26" viewBox="0 0 78 26" fill="none" xmlns="http://www.w3.org/2000/svg">
<path d="M33.5932 25.0753H27.3094L31.2367 0.939572H37.5211L33.5932 25.0753ZM22.0231 0.939572L16.0324 17.5403L15.3235 13.9655L15.3242 13.9668L13.2098 3.11272C13.2098 3.11272 12.9541 0.939572 10.229 0.939572H0.325196L0.208984 1.34825C0.208984 1.34825 3.23757 1.97837 6.782 4.10697L12.2413 25.0759H18.7885L28.7859 0.939572H22.0231ZM71.4482 25.0753H77.2181L72.1875 0.938927H67.1362C64.8036 0.938927 64.2354 2.73761 64.2354 2.73761L54.8636 25.0753H61.4141L62.724 21.4902H70.7122L71.4482 25.0753ZM64.5337 16.5377L67.8354 7.50549L69.6928 16.5377H64.5337ZM55.355 6.74366L56.2517 1.56065C56.2517 1.56065 53.4846 0.508301 50.6 0.508301C47.4817 0.508301 40.0764 1.8712 40.0764 8.49845C40.0764 14.7338 48.7677 14.8113 48.7677 18.0865C48.7677 21.3617 40.9719 20.7748 38.3991 18.7095L37.4649 24.1288C37.4649 24.1288 40.2708 25.4917 44.5577 25.4917C48.8459 25.4917 55.3149 23.2715 55.3149 17.2285C55.3149 10.9531 46.5455 10.3688 46.5455 7.64043C46.5462 4.91141 52.666 5.26197 55.355 6.74366Z" fill="#121F76"/>
</svg>
