<svg width="55" height="26" viewBox="0 0 55 26" fill="none" xmlns="http://www.w3.org/2000/svg">
<path fill-rule="evenodd" clip-rule="evenodd" d="M1.07527 0.45459H16.966V3.80001H1.07527V0.45459ZM3.62106 8.86605H0.238281L7.7786 25.5455H9.12672L16.6343 8.86605H13.2519L8.45134 20.0454L3.62106 8.86605ZM49.3422 8.86595V4.61247H46.1951V8.86595L43.6281 8.86605V11.8253L46.1951 11.8252V20.1161L46.1957 20.2214C46.2357 23.6791 48.2544 25.5455 51.6974 25.5455C52.4205 25.5455 53.2743 25.4244 54.3142 25.1845L54.6014 25.1182V22.2974L54.1749 22.3671L54.0108 22.3932C53.3089 22.5022 52.7235 22.5543 52.1983 22.5543L52.1379 22.554L52.0789 22.5534C50.1416 22.5253 49.3422 21.8012 49.3422 19.9562V11.8252L54.1005 11.8253V8.86605L49.3422 8.86595ZM25.7298 8.86765L25.6045 8.866L25.4734 8.86656C21.154 8.9222 17.5184 12.6537 17.5363 17.0622L17.538 17.1894L17.5372 17.3208L17.5387 17.4534C17.6227 21.8227 21.2761 25.5329 25.5749 25.5153L25.6999 25.5135L25.8259 25.5153L25.9566 25.5146C30.2637 25.4569 33.9427 21.6821 33.9253 17.3175L33.9236 17.1905L33.9253 17.0625L33.9247 16.9295C33.8693 12.5457 30.2008 8.87869 25.8599 8.86691L25.7298 8.86765ZM40.418 25.4759V0.454833H37.2709V25.4759H40.418ZM20.5758 17.1906C20.5158 14.3374 22.8729 11.9109 25.6466 11.923L25.7308 11.9242L25.815 11.9237L25.8989 11.9246C28.636 11.9799 30.9452 14.3662 30.8858 17.1906C30.9452 19.9744 28.6166 22.4196 25.8787 22.4577L25.7947 22.4582C25.7667 22.458 25.7387 22.4577 25.7106 22.4571C22.9006 22.5193 20.5354 20.0312 20.5758 17.1906Z" fill="#1A63AB"/>
</svg>
