<svg width="432" height="243" viewBox="0 0 432 243" fill="none" xmlns="http://www.w3.org/2000/svg">
<rect width="432" height="243" rx="8" fill="white"/>
<path d="M89.344 25.424V31H88.616V25.424H89.344ZM95.7687 31H95.0408L92.1128 26.56V31H91.3848V25.416H92.1128L95.0408 29.848V25.416H95.7687V31ZM104.175 25.424V26.016H102.655V31H101.927V26.016H100.399V25.424H104.175ZM110.167 25.424V31H109.439V28.472H106.599V31H105.871V25.424H106.599V27.872H109.439V25.424H110.167ZM114.738 31.056C114.22 31.056 113.748 30.936 113.322 30.696C112.895 30.4507 112.556 30.112 112.306 29.68C112.06 29.2427 111.938 28.752 111.938 28.208C111.938 27.664 112.06 27.176 112.306 26.744C112.556 26.3067 112.895 25.968 113.322 25.728C113.748 25.4827 114.22 25.36 114.738 25.36C115.26 25.36 115.735 25.4827 116.162 25.728C116.588 25.968 116.924 26.304 117.17 26.736C117.415 27.168 117.538 27.6587 117.538 28.208C117.538 28.7573 117.415 29.248 117.17 29.68C116.924 30.112 116.588 30.4507 116.162 30.696C115.735 30.936 115.26 31.056 114.738 31.056ZM114.738 30.424C115.127 30.424 115.476 30.3333 115.786 30.152C116.1 29.9707 116.346 29.712 116.522 29.376C116.703 29.04 116.794 28.6507 116.794 28.208C116.794 27.76 116.703 27.3707 116.522 27.04C116.346 26.704 116.103 26.4453 115.794 26.264C115.484 26.0827 115.132 25.992 114.738 25.992C114.343 25.992 113.991 26.0827 113.682 26.264C113.372 26.4453 113.127 26.704 112.946 27.04C112.77 27.3707 112.682 27.76 112.682 28.208C112.682 28.6507 112.77 29.04 112.946 29.376C113.127 29.712 113.372 29.9707 113.682 30.152C113.996 30.3333 114.348 30.424 114.738 30.424ZM120.011 25.424V28.952C120.011 29.448 120.131 29.816 120.371 30.056C120.616 30.296 120.955 30.416 121.387 30.416C121.813 30.416 122.147 30.296 122.387 30.056C122.632 29.816 122.755 29.448 122.755 28.952V25.424H123.483V28.944C123.483 29.408 123.389 29.8 123.203 30.12C123.016 30.4347 122.763 30.6693 122.443 30.824C122.128 30.9787 121.773 31.056 121.379 31.056C120.984 31.056 120.627 30.9787 120.307 30.824C119.992 30.6693 119.741 30.4347 119.555 30.12C119.373 29.8 119.283 29.408 119.283 28.944V25.424H120.011ZM127.265 31.056C126.897 31.056 126.567 30.992 126.273 30.864C125.985 30.7307 125.759 30.5493 125.593 30.32C125.428 30.0853 125.343 29.816 125.337 29.512H126.113C126.14 29.7733 126.247 29.9947 126.433 30.176C126.625 30.352 126.903 30.44 127.265 30.44C127.612 30.44 127.884 30.3547 128.081 30.184C128.284 30.008 128.385 29.784 128.385 29.512C128.385 29.2987 128.327 29.1253 128.209 28.992C128.092 28.8587 127.945 28.7573 127.769 28.688C127.593 28.6187 127.356 28.544 127.057 28.464C126.689 28.368 126.393 28.272 126.169 28.176C125.951 28.08 125.761 27.9307 125.601 27.728C125.447 27.52 125.369 27.2427 125.369 26.896C125.369 26.592 125.447 26.3227 125.601 26.088C125.756 25.8533 125.972 25.672 126.249 25.544C126.532 25.416 126.855 25.352 127.217 25.352C127.74 25.352 128.167 25.4827 128.497 25.744C128.833 26.0053 129.023 26.352 129.065 26.784H128.265C128.239 26.5707 128.127 26.384 127.929 26.224C127.732 26.0587 127.471 25.976 127.145 25.976C126.841 25.976 126.593 26.056 126.401 26.216C126.209 26.3707 126.113 26.5893 126.113 26.872C126.113 27.0747 126.169 27.24 126.281 27.368C126.399 27.496 126.54 27.5947 126.705 27.664C126.876 27.728 127.113 27.8027 127.417 27.888C127.785 27.9893 128.081 28.0907 128.305 28.192C128.529 28.288 128.721 28.44 128.881 28.648C129.041 28.8507 129.121 29.128 129.121 29.48C129.121 29.752 129.049 30.008 128.905 30.248C128.761 30.488 128.548 30.6827 128.265 30.832C127.983 30.9813 127.649 31.056 127.265 31.056ZM134.289 29.76H131.857L131.409 31H130.641L132.657 25.456H133.497L135.505 31H134.737L134.289 29.76ZM134.081 29.168L133.073 26.352L132.065 29.168H134.081ZM141.567 31H140.839L137.911 26.56V31H137.183V25.416H137.911L140.839 29.848V25.416H141.567V31ZM145.344 25.424C145.952 25.424 146.478 25.5387 146.92 25.768C147.368 25.992 147.71 26.3147 147.944 26.736C148.184 27.1573 148.304 27.6533 148.304 28.224C148.304 28.7947 148.184 29.2907 147.944 29.712C147.71 30.128 147.368 30.448 146.92 30.672C146.478 30.8907 145.952 31 145.344 31H143.608V25.424H145.344ZM145.344 30.4C146.064 30.4 146.614 30.2107 146.992 29.832C147.371 29.448 147.56 28.912 147.56 28.224C147.56 27.5307 147.368 26.9893 146.984 26.6C146.606 26.2107 146.059 26.016 145.344 26.016H144.336V30.4H145.344ZM151.832 31.056C151.464 31.056 151.134 30.992 150.84 30.864C150.552 30.7307 150.326 30.5493 150.16 30.32C149.995 30.0853 149.91 29.816 149.904 29.512H150.68C150.707 29.7733 150.814 29.9947 151 30.176C151.192 30.352 151.47 30.44 151.832 30.44C152.179 30.44 152.451 30.3547 152.648 30.184C152.851 30.008 152.952 29.784 152.952 29.512C152.952 29.2987 152.894 29.1253 152.776 28.992C152.659 28.8587 152.512 28.7573 152.336 28.688C152.16 28.6187 151.923 28.544 151.624 28.464C151.256 28.368 150.96 28.272 150.736 28.176C150.518 28.08 150.328 27.9307 150.168 27.728C150.014 27.52 149.936 27.2427 149.936 26.896C149.936 26.592 150.014 26.3227 150.168 26.088C150.323 25.8533 150.539 25.672 150.816 25.544C151.099 25.416 151.422 25.352 151.784 25.352C152.307 25.352 152.734 25.4827 153.064 25.744C153.4 26.0053 153.59 26.352 153.632 26.784H152.832C152.806 26.5707 152.694 26.384 152.496 26.224C152.299 26.0587 152.038 25.976 151.712 25.976C151.408 25.976 151.16 26.056 150.968 26.216C150.776 26.3707 150.68 26.5893 150.68 26.872C150.68 27.0747 150.736 27.24 150.848 27.368C150.966 27.496 151.107 27.5947 151.272 27.664C151.443 27.728 151.68 27.8027 151.984 27.888C152.352 27.9893 152.648 28.0907 152.872 28.192C153.096 28.288 153.288 28.44 153.448 28.648C153.608 28.8507 153.688 29.128 153.688 29.48C153.688 29.752 153.616 30.008 153.472 30.248C153.328 30.488 153.115 30.6827 152.832 30.832C152.55 30.9813 152.216 31.056 151.832 31.056Z" fill="#3B4565" fill-opacity="0.24"/>
<path d="M29.328 31L27.336 27.58H26.016V31H24.924V22.636H27.624C28.256 22.636 28.788 22.744 29.22 22.96C29.66 23.176 29.988 23.468 30.204 23.836C30.42 24.204 30.528 24.624 30.528 25.096C30.528 25.672 30.36 26.18 30.024 26.62C29.696 27.06 29.2 27.352 28.536 27.496L30.636 31H29.328ZM26.016 26.704H27.624C28.216 26.704 28.66 26.56 28.956 26.272C29.252 25.976 29.4 25.584 29.4 25.096C29.4 24.6 29.252 24.216 28.956 23.944C28.668 23.672 28.224 23.536 27.624 23.536H26.016V26.704ZM34.5168 23.524V26.32H37.5648V27.22H34.5168V30.1H37.9248V31H33.4248V22.624H37.9248V23.524H34.5168ZM47.6891 22.636L44.5331 31H43.2731L40.1171 22.636H41.2811L43.9091 29.848L46.5371 22.636H47.6891ZM51.1785 23.524V26.32H54.2265V27.22H51.1785V30.1H54.5865V31H50.0865V22.624H54.5865V23.524H51.1785ZM64.0148 31H62.9228L58.5308 24.34V31H57.4388V22.624H58.5308L62.9228 29.272V22.624H64.0148V31ZM68.1443 22.636V27.928C68.1443 28.672 68.3243 29.224 68.6843 29.584C69.0523 29.944 69.5603 30.124 70.2083 30.124C70.8483 30.124 71.3483 29.944 71.7083 29.584C72.0763 29.224 72.2603 28.672 72.2603 27.928V22.636H73.3523V27.916C73.3523 28.612 73.2123 29.2 72.9323 29.68C72.6523 30.152 72.2723 30.504 71.7923 30.736C71.3203 30.968 70.7883 31.084 70.1963 31.084C69.6043 31.084 69.0683 30.968 68.5883 30.736C68.1163 30.504 67.7403 30.152 67.4603 29.68C67.1883 29.2 67.0523 28.612 67.0523 27.916V22.636H68.1443ZM77.466 23.524V26.32H80.514V27.22H77.466V30.1H80.874V31H76.374V22.624H80.874V23.524H77.466ZM212.672 32.272H211.58V21.46H212.672V32.272ZM275.838 31.084C275.286 31.084 274.79 30.988 274.35 30.796C273.918 30.596 273.578 30.324 273.33 29.98C273.082 29.628 272.954 29.224 272.946 28.768H274.11C274.15 29.16 274.31 29.492 274.59 29.764C274.878 30.028 275.294 30.16 275.838 30.16C276.358 30.16 276.766 30.032 277.062 29.776C277.366 29.512 277.518 29.176 277.518 28.768C277.518 28.448 277.43 28.188 277.254 27.988C277.078 27.788 276.858 27.636 276.594 27.532C276.33 27.428 275.974 27.316 275.526 27.196C274.974 27.052 274.53 26.908 274.194 26.764C273.866 26.62 273.582 26.396 273.342 26.092C273.11 25.78 272.994 25.364 272.994 24.844C272.994 24.388 273.11 23.984 273.342 23.632C273.574 23.28 273.898 23.008 274.314 22.816C274.738 22.624 275.222 22.528 275.766 22.528C276.55 22.528 277.19 22.724 277.686 23.116C278.19 23.508 278.474 24.028 278.538 24.676H277.338C277.298 24.356 277.13 24.076 276.834 23.836C276.538 23.588 276.146 23.464 275.658 23.464C275.202 23.464 274.83 23.584 274.542 23.824C274.254 24.056 274.11 24.384 274.11 24.808C274.11 25.112 274.194 25.36 274.362 25.552C274.538 25.744 274.75 25.892 274.998 25.996C275.254 26.092 275.61 26.204 276.066 26.332C276.618 26.484 277.062 26.636 277.398 26.788C277.734 26.932 278.022 27.16 278.262 27.472C278.502 27.776 278.622 28.192 278.622 28.72C278.622 29.128 278.514 29.512 278.298 29.872C278.082 30.232 277.762 30.524 277.338 30.748C276.914 30.972 276.414 31.084 275.838 31.084ZM282.521 23.524V26.32H285.569V27.22H282.521V30.1H285.929V31H281.429V22.624H285.929V23.524H282.521ZM294.373 25.084C294.373 25.78 294.133 26.36 293.653 26.824C293.181 27.28 292.457 27.508 291.481 27.508H289.873V31H288.781V22.636H291.481C292.425 22.636 293.141 22.864 293.629 23.32C294.125 23.776 294.373 24.364 294.373 25.084ZM291.481 26.608C292.089 26.608 292.537 26.476 292.825 26.212C293.113 25.948 293.257 25.572 293.257 25.084C293.257 24.052 292.665 23.536 291.481 23.536H289.873V26.608H291.481ZM302.078 22.636V23.524H299.798V31H298.706V23.524H296.414V22.636H302.078ZM305.714 23.524V26.32H308.762V27.22H305.714V30.1H309.122V31H304.622V22.624H309.122V23.524H305.714ZM320.459 22.696V31H319.367V24.808L316.607 31H315.839L313.067 24.796V31H311.975V22.696H313.151L316.223 29.56L319.295 22.696H320.459ZM327.699 26.692C328.003 26.74 328.279 26.864 328.527 27.064C328.783 27.264 328.983 27.512 329.127 27.808C329.279 28.104 329.355 28.42 329.355 28.756C329.355 29.18 329.247 29.564 329.031 29.908C328.815 30.244 328.499 30.512 328.083 30.712C327.675 30.904 327.191 31 326.631 31H323.511V22.636H326.511C327.079 22.636 327.563 22.732 327.963 22.924C328.363 23.108 328.663 23.36 328.863 23.68C329.063 24 329.163 24.36 329.163 24.76C329.163 25.256 329.027 25.668 328.755 25.996C328.491 26.316 328.139 26.548 327.699 26.692ZM324.603 26.248H326.439C326.951 26.248 327.347 26.128 327.627 25.888C327.907 25.648 328.047 25.316 328.047 24.892C328.047 24.468 327.907 24.136 327.627 23.896C327.347 23.656 326.943 23.536 326.415 23.536H324.603V26.248ZM326.535 30.1C327.079 30.1 327.503 29.972 327.807 29.716C328.111 29.46 328.263 29.104 328.263 28.648C328.263 28.184 328.103 27.82 327.783 27.556C327.463 27.284 327.035 27.148 326.499 27.148H324.603V30.1H326.535ZM333.162 23.524V26.32H336.21V27.22H333.162V30.1H336.57V31H332.07V22.624H336.57V23.524H333.162ZM343.826 31L341.834 27.58H340.514V31H339.422V22.636H342.122C342.754 22.636 343.286 22.744 343.718 22.96C344.158 23.176 344.486 23.468 344.702 23.836C344.918 24.204 345.026 24.624 345.026 25.096C345.026 25.672 344.858 26.18 344.522 26.62C344.194 27.06 343.698 27.352 343.034 27.496L345.134 31H343.826ZM340.514 26.704H342.122C342.714 26.704 343.158 26.56 343.454 26.272C343.75 25.976 343.898 25.584 343.898 25.096C343.898 24.6 343.75 24.216 343.454 23.944C343.166 23.672 342.722 23.536 342.122 23.536H340.514V26.704ZM352.01 30.124C353.026 29.308 353.822 28.64 354.398 28.12C354.974 27.592 355.458 27.044 355.85 26.476C356.25 25.9 356.45 25.336 356.45 24.784C356.45 24.264 356.322 23.856 356.066 23.56C355.818 23.256 355.414 23.104 354.854 23.104C354.31 23.104 353.886 23.276 353.582 23.62C353.286 23.956 353.126 24.408 353.102 24.976H352.046C352.078 24.08 352.35 23.388 352.862 22.9C353.374 22.412 354.034 22.168 354.842 22.168C355.666 22.168 356.318 22.396 356.798 22.852C357.286 23.308 357.53 23.936 357.53 24.736C357.53 25.4 357.33 26.048 356.93 26.68C356.538 27.304 356.09 27.856 355.586 28.336C355.082 28.808 354.438 29.36 353.654 29.992H357.782V30.904H352.01V30.124ZM360.245 26.572C360.245 25.196 360.469 24.124 360.917 23.356C361.365 22.58 362.149 22.192 363.269 22.192C364.381 22.192 365.161 22.58 365.609 23.356C366.057 24.124 366.281 25.196 366.281 26.572C366.281 27.972 366.057 29.06 365.609 29.836C365.161 30.612 364.381 31 363.269 31C362.149 31 361.365 30.612 360.917 29.836C360.469 29.06 360.245 27.972 360.245 26.572ZM365.201 26.572C365.201 25.876 365.153 25.288 365.057 24.808C364.969 24.32 364.781 23.928 364.493 23.632C364.213 23.336 363.805 23.188 363.269 23.188C362.725 23.188 362.309 23.336 362.021 23.632C361.741 23.928 361.553 24.32 361.457 24.808C361.369 25.288 361.325 25.876 361.325 26.572C361.325 27.292 361.369 27.896 361.457 28.384C361.553 28.872 361.741 29.264 362.021 29.56C362.309 29.856 362.725 30.004 363.269 30.004C363.805 30.004 364.213 29.856 364.493 29.56C364.781 29.264 364.969 28.872 365.057 28.384C365.153 27.896 365.201 27.292 365.201 26.572ZM368.848 30.124C369.864 29.308 370.66 28.64 371.236 28.12C371.812 27.592 372.296 27.044 372.688 26.476C373.088 25.9 373.288 25.336 373.288 24.784C373.288 24.264 373.16 23.856 372.904 23.56C372.656 23.256 372.252 23.104 371.692 23.104C371.148 23.104 370.724 23.276 370.42 23.62C370.124 23.956 369.964 24.408 369.94 24.976H368.884C368.916 24.08 369.188 23.388 369.7 22.9C370.212 22.412 370.872 22.168 371.68 22.168C372.504 22.168 373.156 22.396 373.636 22.852C374.124 23.308 374.368 23.936 374.368 24.736C374.368 25.4 374.168 26.048 373.768 26.68C373.376 27.304 372.928 27.856 372.424 28.336C371.92 28.808 371.276 29.36 370.492 29.992H374.62V30.904H368.848V30.124ZM377.082 26.572C377.082 25.196 377.306 24.124 377.754 23.356C378.202 22.58 378.986 22.192 380.106 22.192C381.218 22.192 381.998 22.58 382.446 23.356C382.894 24.124 383.118 25.196 383.118 26.572C383.118 27.972 382.894 29.06 382.446 29.836C381.998 30.612 381.218 31 380.106 31C378.986 31 378.202 30.612 377.754 29.836C377.306 29.06 377.082 27.972 377.082 26.572ZM382.038 26.572C382.038 25.876 381.99 25.288 381.894 24.808C381.806 24.32 381.618 23.928 381.33 23.632C381.05 23.336 380.642 23.188 380.106 23.188C379.562 23.188 379.146 23.336 378.858 23.632C378.578 23.928 378.39 24.32 378.294 24.808C378.206 25.288 378.162 25.876 378.162 26.572C378.162 27.292 378.206 27.896 378.294 28.384C378.39 28.872 378.578 29.264 378.858 29.56C379.146 29.856 379.562 30.004 380.106 30.004C380.642 30.004 381.05 29.856 381.33 29.56C381.618 29.264 381.806 28.872 381.894 28.384C381.99 27.896 382.038 27.292 382.038 26.572Z" fill="#3B4565" fill-opacity="0.5"/>
<path d="M48.2049 220.416H47.2967V214.395L45.4754 215.064V214.244L48.0633 213.272H48.2049V220.416ZM51.1248 221.026H50.3484L53.3172 213.306H54.0887L51.1248 221.026ZM59.4305 217.384C59.4305 218.442 59.2498 219.228 58.8885 219.742C58.5271 220.256 57.9624 220.514 57.1941 220.514C56.4357 220.514 55.8741 220.263 55.5096 219.762C55.145 219.257 54.9562 218.505 54.9432 217.506V216.3C54.9432 215.255 55.1238 214.478 55.4851 213.971C55.8465 213.463 56.4129 213.209 57.1844 213.209C57.9493 213.209 58.5125 213.455 58.8738 213.946C59.2351 214.434 59.4207 215.19 59.4305 216.212V217.384ZM58.5271 216.148C58.5271 215.383 58.4197 214.827 58.2049 214.478C57.99 214.127 57.6499 213.951 57.1844 213.951C56.7221 213.951 56.3852 214.125 56.1736 214.473C55.962 214.822 55.853 215.357 55.8465 216.08V217.525C55.8465 218.293 55.9572 218.862 56.1785 219.229C56.4031 219.594 56.7417 219.776 57.1941 219.776C57.6401 219.776 57.9705 219.604 58.1853 219.259C58.4034 218.914 58.5174 218.37 58.5271 217.628V216.148ZM64.0496 217.291C63.8608 217.515 63.6346 217.696 63.3709 217.833C63.1105 217.97 62.824 218.038 62.5115 218.038C62.1014 218.038 61.7433 217.937 61.4373 217.735C61.1346 217.533 60.9002 217.25 60.7342 216.886C60.5682 216.518 60.4851 216.112 60.4851 215.67C60.4851 215.195 60.5747 214.766 60.7537 214.386C60.936 214.005 61.1932 213.713 61.5252 213.512C61.8572 213.31 62.2446 213.209 62.6873 213.209C63.3904 213.209 63.9438 213.473 64.3475 214C64.7544 214.524 64.9578 215.24 64.9578 216.148V216.412C64.9578 217.795 64.6844 218.806 64.1375 219.444C63.5906 220.079 62.7654 220.404 61.6619 220.421H61.4861V219.659H61.6766C62.422 219.646 62.9949 219.452 63.3953 219.078C63.7957 218.7 64.0138 218.105 64.0496 217.291ZM62.658 217.291C62.9607 217.291 63.2391 217.198 63.493 217.013C63.7501 216.827 63.9373 216.598 64.0545 216.324V215.963C64.0545 215.37 63.9259 214.889 63.6687 214.517C63.4116 214.146 63.0861 213.961 62.6922 213.961C62.295 213.961 61.976 214.114 61.7351 214.42C61.4943 214.723 61.3738 215.123 61.3738 215.621C61.3738 216.106 61.4894 216.506 61.7205 216.822C61.9549 217.135 62.2674 217.291 62.658 217.291Z" fill="#959BAF"/>
<path d="M130.444 213.814L127.499 220.416H126.552L129.487 214.049H125.639V213.306H130.444V213.814ZM131.742 221.026H130.966L133.935 213.306H134.706L131.742 221.026ZM140.048 217.384C140.048 218.442 139.867 219.228 139.506 219.742C139.145 220.256 138.58 220.514 137.812 220.514C137.053 220.514 136.492 220.263 136.127 219.762C135.763 219.257 135.574 218.505 135.561 217.506V216.3C135.561 215.255 135.741 214.478 136.103 213.971C136.464 213.463 137.03 213.209 137.802 213.209C138.567 213.209 139.13 213.455 139.491 213.946C139.853 214.434 140.038 215.19 140.048 216.212V217.384ZM139.145 216.148C139.145 215.383 139.037 214.827 138.822 214.478C138.608 214.127 138.267 213.951 137.802 213.951C137.34 213.951 137.003 214.125 136.791 214.473C136.58 214.822 136.471 215.357 136.464 216.08V217.525C136.464 218.293 136.575 218.862 136.796 219.229C137.021 219.594 137.359 219.776 137.812 219.776C138.258 219.776 138.588 219.604 138.803 219.259C139.021 218.914 139.135 218.37 139.145 217.628V216.148ZM144.667 217.291C144.478 217.515 144.252 217.696 143.988 217.833C143.728 217.97 143.442 218.038 143.129 218.038C142.719 218.038 142.361 217.937 142.055 217.735C141.752 217.533 141.518 217.25 141.352 216.886C141.186 216.518 141.103 216.112 141.103 215.67C141.103 215.195 141.192 214.766 141.371 214.386C141.554 214.005 141.811 213.713 142.143 213.512C142.475 213.31 142.862 213.209 143.305 213.209C144.008 213.209 144.561 213.473 144.965 214C145.372 214.524 145.575 215.24 145.575 216.148V216.412C145.575 217.795 145.302 218.806 144.755 219.444C144.208 220.079 143.383 220.404 142.279 220.421H142.104V219.659H142.294C143.04 219.646 143.612 219.452 144.013 219.078C144.413 218.7 144.631 218.105 144.667 217.291ZM143.276 217.291C143.578 217.291 143.857 217.198 144.111 217.013C144.368 216.827 144.555 216.598 144.672 216.324V215.963C144.672 215.37 144.543 214.889 144.286 214.517C144.029 214.146 143.704 213.961 143.31 213.961C142.913 213.961 142.594 214.114 142.353 214.42C142.112 214.723 141.991 215.123 141.991 215.621C141.991 216.106 142.107 216.506 142.338 216.822C142.572 217.135 142.885 217.291 143.276 217.291Z" fill="#959BAF"/>
<path d="M212.385 220.416H211.477V214.395L209.655 215.064V214.244L212.243 213.272H212.385V220.416ZM218.845 218.028H219.831V218.765H218.845V220.416H217.937V218.765H214.699V218.233L217.883 213.306H218.845V218.028ZM215.725 218.028H217.937V214.542L217.829 214.737L215.725 218.028ZM220.92 221.026H220.144L223.112 213.306H223.884L220.92 221.026ZM229.226 217.384C229.226 218.442 229.045 219.228 228.684 219.742C228.322 220.256 227.758 220.514 226.989 220.514C226.231 220.514 225.669 220.263 225.305 219.762C224.94 219.257 224.751 218.505 224.738 217.506V216.3C224.738 215.255 224.919 214.478 225.28 213.971C225.642 213.463 226.208 213.209 226.98 213.209C227.745 213.209 228.308 213.455 228.669 213.946C229.03 214.434 229.216 215.19 229.226 216.212V217.384ZM228.322 216.148C228.322 215.383 228.215 214.827 228 214.478C227.785 214.127 227.445 213.951 226.98 213.951C226.517 213.951 226.18 214.125 225.969 214.473C225.757 214.822 225.648 215.357 225.642 216.08V217.525C225.642 218.293 225.752 218.862 225.974 219.229C226.198 219.594 226.537 219.776 226.989 219.776C227.435 219.776 227.766 219.604 227.981 219.259C228.199 218.914 228.313 218.37 228.322 217.628V216.148ZM233.845 217.291C233.656 217.515 233.43 217.696 233.166 217.833C232.906 217.97 232.619 218.038 232.307 218.038C231.897 218.038 231.539 217.937 231.233 217.735C230.93 217.533 230.695 217.25 230.529 216.886C230.363 216.518 230.28 216.112 230.28 215.67C230.28 215.195 230.37 214.766 230.549 214.386C230.731 214.005 230.988 213.713 231.32 213.512C231.652 213.31 232.04 213.209 232.483 213.209C233.186 213.209 233.739 213.473 234.143 214C234.55 214.524 234.753 215.24 234.753 216.148V216.412C234.753 217.795 234.48 218.806 233.933 219.444C233.386 220.079 232.561 220.404 231.457 220.421H231.281V219.659H231.472C232.217 219.646 232.79 219.452 233.191 219.078C233.591 218.7 233.809 218.105 233.845 217.291ZM232.453 217.291C232.756 217.291 233.034 217.198 233.288 217.013C233.545 216.827 233.733 216.598 233.85 216.324V215.963C233.85 215.37 233.721 214.889 233.464 214.517C233.207 214.146 232.881 213.961 232.487 213.961C232.09 213.961 231.771 214.114 231.53 214.42C231.29 214.723 231.169 215.123 231.169 215.621C231.169 216.106 231.285 216.506 231.516 216.822C231.75 217.135 232.063 217.291 232.453 217.291Z" fill="#959BAF"/>
<path d="M299.458 220H294.8V219.351L297.261 216.616C297.625 216.203 297.876 215.868 298.013 215.61C298.153 215.35 298.223 215.081 298.223 214.805C298.223 214.434 298.11 214.129 297.886 213.892C297.661 213.654 297.362 213.535 296.987 213.535C296.538 213.535 296.188 213.664 295.938 213.921C295.69 214.175 295.566 214.53 295.566 214.985H294.663C294.663 214.331 294.873 213.802 295.293 213.398C295.716 212.995 296.281 212.793 296.987 212.793C297.648 212.793 298.171 212.967 298.555 213.315C298.939 213.66 299.131 214.121 299.131 214.697C299.131 215.397 298.685 216.23 297.793 217.197L295.889 219.263H299.458V220ZM303.384 220H302.476V213.979L300.654 214.648V213.828L303.242 212.856H303.384V220ZM306.304 220.61H305.527L308.496 212.891H309.268L306.304 220.61ZM314.609 216.968C314.609 218.026 314.429 218.812 314.067 219.326C313.706 219.84 313.141 220.098 312.373 220.098C311.615 220.098 311.053 219.847 310.688 219.346C310.324 218.841 310.135 218.089 310.122 217.09V215.884C310.122 214.839 310.303 214.062 310.664 213.555C311.025 213.047 311.592 212.793 312.363 212.793C313.128 212.793 313.691 213.039 314.053 213.53C314.414 214.019 314.6 214.774 314.609 215.796V216.968ZM313.706 215.732C313.706 214.967 313.599 214.411 313.384 214.062C313.169 213.711 312.829 213.535 312.363 213.535C311.901 213.535 311.564 213.709 311.353 214.058C311.141 214.406 311.032 214.941 311.025 215.664V217.109C311.025 217.878 311.136 218.446 311.357 218.813C311.582 219.178 311.921 219.36 312.373 219.36C312.819 219.36 313.149 219.188 313.364 218.843C313.582 218.498 313.696 217.954 313.706 217.212V215.732ZM319.229 216.875C319.04 217.1 318.813 217.28 318.55 217.417C318.289 217.554 318.003 217.622 317.69 217.622C317.28 217.622 316.922 217.521 316.616 217.319C316.313 217.118 316.079 216.834 315.913 216.47C315.747 216.102 315.664 215.697 315.664 215.254C315.664 214.779 315.754 214.351 315.933 213.97C316.115 213.589 316.372 213.298 316.704 213.096C317.036 212.894 317.424 212.793 317.866 212.793C318.569 212.793 319.123 213.057 319.526 213.584C319.933 214.108 320.137 214.824 320.137 215.732V215.996C320.137 217.38 319.863 218.39 319.316 219.028C318.77 219.663 317.944 219.989 316.841 220.005H316.665V219.243H316.855C317.601 219.23 318.174 219.036 318.574 218.662C318.975 218.285 319.193 217.689 319.229 216.875ZM317.837 216.875C318.14 216.875 318.418 216.782 318.672 216.597C318.929 216.411 319.116 216.182 319.233 215.908V215.547C319.233 214.954 319.105 214.473 318.848 214.102C318.59 213.73 318.265 213.545 317.871 213.545C317.474 213.545 317.155 213.698 316.914 214.004C316.673 214.307 316.553 214.707 316.553 215.205C316.553 215.69 316.668 216.09 316.899 216.406C317.134 216.719 317.446 216.875 317.837 216.875Z" fill="#959BAF"/>
<path d="M381.458 220H376.8V219.351L379.261 216.616C379.625 216.203 379.876 215.868 380.013 215.61C380.153 215.35 380.223 215.081 380.223 214.805C380.223 214.434 380.11 214.129 379.886 213.892C379.661 213.654 379.362 213.535 378.987 213.535C378.538 213.535 378.188 213.664 377.938 213.921C377.69 214.175 377.566 214.53 377.566 214.985H376.663C376.663 214.331 376.873 213.802 377.293 213.398C377.716 212.995 378.281 212.793 378.987 212.793C379.648 212.793 380.171 212.967 380.555 213.315C380.939 213.66 381.131 214.121 381.131 214.697C381.131 215.397 380.685 216.23 379.793 217.197L377.889 219.263H381.458V220ZM386.727 214.746C386.727 215.101 386.632 215.417 386.443 215.693C386.258 215.97 386.006 216.187 385.687 216.343C386.058 216.502 386.351 216.735 386.565 217.041C386.784 217.347 386.893 217.694 386.893 218.081C386.893 218.696 386.684 219.186 386.268 219.551C385.854 219.915 385.309 220.098 384.632 220.098C383.948 220.098 383.4 219.915 382.986 219.551C382.576 219.183 382.371 218.693 382.371 218.081C382.371 217.697 382.475 217.35 382.684 217.041C382.895 216.732 383.187 216.497 383.558 216.338C383.242 216.182 382.993 215.965 382.811 215.688C382.628 215.412 382.537 215.098 382.537 214.746C382.537 214.147 382.729 213.672 383.113 213.32C383.497 212.969 384.004 212.793 384.632 212.793C385.257 212.793 385.761 212.969 386.146 213.32C386.533 213.672 386.727 214.147 386.727 214.746ZM385.989 218.062C385.989 217.664 385.862 217.34 385.608 217.09C385.358 216.839 385.029 216.714 384.622 216.714C384.215 216.714 383.888 216.838 383.641 217.085C383.396 217.332 383.274 217.658 383.274 218.062C383.274 218.465 383.393 218.783 383.631 219.014C383.872 219.245 384.205 219.36 384.632 219.36C385.055 219.36 385.387 219.245 385.628 219.014C385.869 218.779 385.989 218.462 385.989 218.062ZM384.632 213.535C384.277 213.535 383.989 213.646 383.768 213.867C383.549 214.085 383.44 214.383 383.44 214.761C383.44 215.122 383.548 215.415 383.763 215.64C383.981 215.861 384.271 215.972 384.632 215.972C384.993 215.972 385.281 215.861 385.496 215.64C385.714 215.415 385.823 215.122 385.823 214.761C385.823 214.399 385.711 214.105 385.486 213.877C385.262 213.649 384.977 213.535 384.632 213.535ZM388.304 220.61H387.527L390.496 212.891H391.268L388.304 220.61ZM396.609 216.968C396.609 218.026 396.429 218.812 396.067 219.326C395.706 219.84 395.141 220.098 394.373 220.098C393.615 220.098 393.053 219.847 392.688 219.346C392.324 218.841 392.135 218.089 392.122 217.09V215.884C392.122 214.839 392.303 214.062 392.664 213.555C393.025 213.047 393.592 212.793 394.363 212.793C395.128 212.793 395.691 213.039 396.053 213.53C396.414 214.019 396.6 214.774 396.609 215.796V216.968ZM395.706 215.732C395.706 214.967 395.599 214.411 395.384 214.062C395.169 213.711 394.829 213.535 394.363 213.535C393.901 213.535 393.564 213.709 393.353 214.058C393.141 214.406 393.032 214.941 393.025 215.664V217.109C393.025 217.878 393.136 218.446 393.357 218.813C393.582 219.178 393.921 219.36 394.373 219.36C394.819 219.36 395.149 219.188 395.364 218.843C395.582 218.498 395.696 217.954 395.706 217.212V215.732ZM401.229 216.875C401.04 217.1 400.813 217.28 400.55 217.417C400.289 217.554 400.003 217.622 399.69 217.622C399.28 217.622 398.922 217.521 398.616 217.319C398.313 217.118 398.079 216.834 397.913 216.47C397.747 216.102 397.664 215.697 397.664 215.254C397.664 214.779 397.754 214.351 397.933 213.97C398.115 213.589 398.372 213.298 398.704 213.096C399.036 212.894 399.424 212.793 399.866 212.793C400.569 212.793 401.123 213.057 401.526 213.584C401.933 214.108 402.137 214.824 402.137 215.732V215.996C402.137 217.38 401.863 218.39 401.316 219.028C400.77 219.663 399.944 219.989 398.841 220.005H398.665V219.243H398.855C399.601 219.23 400.174 219.036 400.574 218.662C400.975 218.285 401.193 217.689 401.229 216.875ZM399.837 216.875C400.14 216.875 400.418 216.782 400.672 216.597C400.929 216.411 401.116 216.182 401.233 215.908V215.547C401.233 214.954 401.105 214.473 400.848 214.102C400.59 213.73 400.265 213.545 399.871 213.545C399.474 213.545 399.155 213.698 398.914 214.004C398.673 214.307 398.553 214.707 398.553 215.205C398.553 215.69 398.668 216.09 398.899 216.406C399.134 216.719 399.446 216.875 399.837 216.875Z" fill="#959BAF"/>
<path d="M30.0115 64.6597C29.8227 64.8843 29.5964 65.0649 29.3328 65.2017C29.0724 65.3384 28.7859 65.4067 28.4734 65.4067C28.0632 65.4067 27.7052 65.3058 27.3992 65.104C27.0964 64.9022 26.8621 64.619 26.6961 64.2544C26.53 63.8866 26.447 63.4813 26.447 63.0386C26.447 62.5633 26.5366 62.1353 26.7156 61.7544C26.8979 61.3735 27.155 61.0822 27.4871 60.8804C27.8191 60.6785 28.2065 60.5776 28.6492 60.5776C29.3523 60.5776 29.9057 60.8413 30.3093 61.3687C30.7162 61.8927 30.9197 62.6089 30.9197 63.5171V63.7808C30.9197 65.1642 30.6463 66.175 30.0994 66.813C29.5525 67.4478 28.7273 67.7733 27.6238 67.7896H27.448V67.0278H27.6384C28.3839 67.0148 28.9568 66.8211 29.3572 66.4468C29.7576 66.0692 29.9757 65.4735 30.0115 64.6597ZM28.6199 64.6597C28.9226 64.6597 29.2009 64.5669 29.4548 64.3813C29.712 64.1958 29.8992 63.9663 30.0164 63.6929V63.3315C30.0164 62.7391 29.8878 62.2573 29.6306 61.8862C29.3735 61.5151 29.0479 61.3296 28.6541 61.3296C28.2569 61.3296 27.9379 61.4826 27.697 61.7886C27.4561 62.0913 27.3357 62.4917 27.3357 62.9897C27.3357 63.4748 27.4513 63.8752 27.6824 64.1909C27.9168 64.5034 28.2293 64.6597 28.6199 64.6597ZM32.5798 64.2202L32.9412 60.6753H36.5838V61.5103H33.7078L33.4929 63.4487C33.8412 63.2437 34.2367 63.1411 34.6795 63.1411C35.3272 63.1411 35.8416 63.356 36.2224 63.7856C36.6033 64.2121 36.7937 64.7899 36.7937 65.519C36.7937 66.2515 36.5951 66.8293 36.198 67.2524C35.8041 67.6724 35.2524 67.8823 34.5427 67.8823C33.9145 67.8823 33.4018 67.7082 33.0047 67.3599C32.6075 67.0116 32.3813 66.5298 32.3259 65.9146H33.1804C33.2358 66.3215 33.3806 66.6291 33.615 66.8374C33.8494 67.0425 34.1586 67.145 34.5427 67.145C34.9627 67.145 35.2914 67.0018 35.5291 66.7153C35.7699 66.4289 35.8904 66.0334 35.8904 65.5288C35.8904 65.0535 35.7602 64.6727 35.4998 64.3862C35.2426 64.0965 34.8992 63.9517 34.4695 63.9517C34.0756 63.9517 33.7664 64.0379 33.5418 64.2104L33.3025 64.4058L32.5798 64.2202ZM42.238 64.7524C42.238 65.8104 42.0574 66.5965 41.6961 67.1108C41.3347 67.6252 40.7699 67.8823 40.0017 67.8823C39.2433 67.8823 38.6817 67.6317 38.3172 67.1304C37.9526 66.6258 37.7638 65.8739 37.7507 64.8745V63.6685C37.7507 62.6235 37.9314 61.8472 38.2927 61.3394C38.6541 60.8315 39.2205 60.5776 39.992 60.5776C40.7569 60.5776 41.3201 60.8234 41.6814 61.3149C42.0427 61.8032 42.2283 62.5584 42.238 63.5806V64.7524ZM41.3347 63.5171C41.3347 62.7521 41.2273 62.1955 41.0125 61.8472C40.7976 61.4956 40.4574 61.3198 39.992 61.3198C39.5297 61.3198 39.1928 61.494 38.9812 61.8423C38.7696 62.1906 38.6606 62.7261 38.6541 63.4487V64.894C38.6541 65.6623 38.7647 66.2303 38.9861 66.5981C39.2107 66.9627 39.5492 67.145 40.0017 67.145C40.4477 67.145 40.7781 66.9725 40.9929 66.6274C41.211 66.2824 41.325 65.7388 41.3347 64.9966V63.5171Z" fill="#959BAF"/>
<path d="M31.1394 96.2598L28.1951 102.861H27.2478L30.1824 96.4942H26.3347V95.752H31.1394V96.2598ZM32.5798 99.297L32.9412 95.752H36.5838V96.587H33.7078L33.4929 98.5255C33.8412 98.3204 34.2367 98.2178 34.6795 98.2178C35.3272 98.2178 35.8416 98.4327 36.2224 98.8624C36.6033 99.2888 36.7937 99.8666 36.7937 100.596C36.7937 101.328 36.5951 101.906 36.198 102.329C35.8041 102.749 35.2524 102.959 34.5427 102.959C33.9145 102.959 33.4018 102.785 33.0047 102.437C32.6075 102.088 32.3813 101.607 32.3259 100.991H33.1804C33.2358 101.398 33.3806 101.706 33.615 101.914C33.8494 102.119 34.1586 102.222 34.5427 102.222C34.9627 102.222 35.2914 102.079 35.5291 101.792C35.7699 101.506 35.8904 101.11 35.8904 100.606C35.8904 100.13 35.7602 99.7494 35.4998 99.463C35.2426 99.1733 34.8992 99.0284 34.4695 99.0284C34.0756 99.0284 33.7664 99.1147 33.5418 99.2872L33.3025 99.4825L32.5798 99.297ZM42.238 99.8292C42.238 100.887 42.0574 101.673 41.6961 102.188C41.3347 102.702 40.7699 102.959 40.0017 102.959C39.2433 102.959 38.6817 102.708 38.3172 102.207C37.9526 101.703 37.7638 100.951 37.7507 99.9512V98.7452C37.7507 97.7003 37.9314 96.9239 38.2927 96.4161C38.6541 95.9083 39.2205 95.6544 39.992 95.6544C40.7569 95.6544 41.3201 95.9001 41.6814 96.3917C42.0427 96.88 42.2283 97.6352 42.238 98.6573V99.8292ZM41.3347 98.5938C41.3347 97.8289 41.2273 97.2722 41.0125 96.9239C40.7976 96.5723 40.4574 96.3966 39.992 96.3966C39.5297 96.3966 39.1928 96.5707 38.9812 96.919C38.7696 97.2673 38.6606 97.8028 38.6541 98.5255V99.9708C38.6541 100.739 38.7647 101.307 38.9861 101.675C39.2107 102.039 39.5492 102.222 40.0017 102.222C40.4477 102.222 40.7781 102.049 40.9929 101.704C41.211 101.359 41.325 100.816 41.3347 100.073V98.5938Z" fill="#959BAF"/>
<path d="M30.0945 131.772V132.538H29.9285C29.2254 132.552 28.6655 132.76 28.2488 133.163C27.8321 133.567 27.5912 134.135 27.5261 134.868C27.9005 134.438 28.4116 134.223 29.0593 134.223C29.6778 134.223 30.171 134.441 30.5388 134.877C30.9099 135.314 31.0955 135.877 31.0955 136.567C31.0955 137.299 30.8953 137.885 30.4949 138.325C30.0977 138.764 29.5639 138.984 28.8933 138.984C28.213 138.984 27.6612 138.723 27.238 138.203C26.8149 137.678 26.6033 137.005 26.6033 136.181V135.834C26.6033 134.526 26.8816 133.526 27.4382 132.836C27.9981 132.143 28.8298 131.788 29.9334 131.772H30.0945ZM28.908 134.975C28.5987 134.975 28.3139 135.068 28.0535 135.253C27.7931 135.439 27.6124 135.672 27.5115 135.952V136.284C27.5115 136.87 27.6433 137.342 27.907 137.7C28.1707 138.058 28.4994 138.237 28.8933 138.237C29.3002 138.237 29.6192 138.087 29.8504 137.788C30.0847 137.488 30.2019 137.096 30.2019 136.611C30.2019 136.122 30.0831 135.729 29.8455 135.429C29.6111 135.126 29.2986 134.975 28.908 134.975ZM32.5798 135.322L32.9412 131.777H36.5838V132.612H33.7078L33.4929 134.55C33.8412 134.345 34.2367 134.243 34.6795 134.243C35.3272 134.243 35.8416 134.457 36.2224 134.887C36.6033 135.314 36.7937 135.891 36.7937 136.621C36.7937 137.353 36.5951 137.931 36.198 138.354C35.8041 138.774 35.2524 138.984 34.5427 138.984C33.9145 138.984 33.4018 138.81 33.0047 138.461C32.6075 138.113 32.3813 137.631 32.3259 137.016H33.1804C33.2358 137.423 33.3806 137.731 33.615 137.939C33.8494 138.144 34.1586 138.247 34.5427 138.247C34.9627 138.247 35.2914 138.103 35.5291 137.817C35.7699 137.53 35.8904 137.135 35.8904 136.63C35.8904 136.155 35.7602 135.774 35.4998 135.488C35.2426 135.198 34.8992 135.053 34.4695 135.053C34.0756 135.053 33.7664 135.139 33.5418 135.312L33.3025 135.507L32.5798 135.322ZM42.238 135.854C42.238 136.912 42.0574 137.698 41.6961 138.212C41.3347 138.727 40.7699 138.984 40.0017 138.984C39.2433 138.984 38.6817 138.733 38.3172 138.232C37.9526 137.727 37.7638 136.975 37.7507 135.976V134.77C37.7507 133.725 37.9314 132.949 38.2927 132.441C38.6541 131.933 39.2205 131.679 39.992 131.679C40.7569 131.679 41.3201 131.925 41.6814 132.416C42.0427 132.905 42.2283 133.66 42.238 134.682V135.854ZM41.3347 134.619C41.3347 133.854 41.2273 133.297 41.0125 132.949C40.7976 132.597 40.4574 132.421 39.992 132.421C39.5297 132.421 39.1928 132.595 38.9812 132.944C38.7696 133.292 38.6606 133.828 38.6541 134.55V135.996C38.6541 136.764 38.7647 137.332 38.9861 137.7C39.2107 138.064 39.5492 138.247 40.0017 138.247C40.4477 138.247 40.7781 138.074 40.9929 137.729C41.211 137.384 41.325 136.84 41.3347 136.098V134.619Z" fill="#959BAF"/>
<path d="M26.9645 169.45L27.3259 165.905H30.9685V166.74H28.0925L27.8776 168.679C28.2259 168.474 28.6214 168.371 29.0642 168.371C29.7119 168.371 30.2263 168.586 30.6071 169.016C30.988 169.442 31.1784 170.02 31.1784 170.749C31.1784 171.482 30.9798 172.059 30.5827 172.483C30.1888 172.903 29.6371 173.113 28.9274 173.113C28.2992 173.113 27.7865 172.938 27.3894 172.59C26.9922 172.242 26.766 171.76 26.7106 171.145H27.5651C27.6205 171.552 27.7653 171.859 27.9997 172.068C28.2341 172.273 28.5433 172.375 28.9274 172.375C29.3474 172.375 29.6761 172.232 29.9138 171.946C30.1547 171.659 30.2751 171.264 30.2751 170.759C30.2751 170.284 30.1449 169.903 29.8845 169.616C29.6273 169.327 29.2839 169.182 28.8542 169.182C28.4603 169.182 28.1511 169.268 27.9265 169.441L27.6872 169.636L26.9645 169.45ZM32.5798 169.45L32.9411 165.905H36.5837V166.74H33.7077L33.4929 168.679C33.8412 168.474 34.2367 168.371 34.6794 168.371C35.3272 168.371 35.8415 168.586 36.2224 169.016C36.6032 169.442 36.7936 170.02 36.7936 170.749C36.7936 171.482 36.5951 172.059 36.1979 172.483C35.8041 172.903 35.2523 173.113 34.5427 173.113C33.9144 173.113 33.4017 172.938 33.0046 172.59C32.6074 172.242 32.3812 171.76 32.3259 171.145H33.1804C33.2357 171.552 33.3806 171.859 33.6149 172.068C33.8493 172.273 34.1586 172.375 34.5427 172.375C34.9626 172.375 35.2914 172.232 35.529 171.946C35.7699 171.659 35.8903 171.264 35.8903 170.759C35.8903 170.284 35.7601 169.903 35.4997 169.616C35.2425 169.327 34.8991 169.182 34.4694 169.182C34.0755 169.182 33.7663 169.268 33.5417 169.441L33.3024 169.636L32.5798 169.45ZM42.238 169.983C42.238 171.041 42.0573 171.827 41.696 172.341C41.3347 172.855 40.7699 173.113 40.0017 173.113C39.2432 173.113 38.6817 172.862 38.3171 172.361C37.9525 171.856 37.7637 171.104 37.7507 170.105V168.899C37.7507 167.854 37.9313 167.077 38.2927 166.57C38.654 166.062 39.2204 165.808 39.9919 165.808C40.7569 165.808 41.32 166.054 41.6813 166.545C42.0427 167.033 42.2282 167.789 42.238 168.811V169.983ZM41.3347 168.747C41.3347 167.982 41.2272 167.426 41.0124 167.077C40.7976 166.726 40.4574 166.55 39.9919 166.55C39.5297 166.55 39.1927 166.724 38.9811 167.072C38.7696 167.421 38.6605 167.956 38.654 168.679V170.124C38.654 170.892 38.7647 171.461 38.986 171.828C39.2106 172.193 39.5492 172.375 40.0017 172.375C40.4476 172.375 40.778 172.203 40.9929 171.858C41.211 171.513 41.3249 170.969 41.3347 170.227V168.747Z" fill="#959BAF"/>
<path d="M30.363 206.652H31.3493V207.389H30.363V209.04H29.4548V207.389H26.2175V206.857L29.4011 201.93H30.363V206.652ZM27.2429 206.652H29.4548V203.166L29.3474 203.361L27.2429 206.652ZM32.5798 205.475L32.9411 201.93H36.5837V202.765H33.7077L33.4929 204.704C33.8412 204.499 34.2367 204.396 34.6794 204.396C35.3272 204.396 35.8415 204.611 36.2224 205.041C36.6032 205.467 36.7936 206.045 36.7936 206.774C36.7936 207.506 36.5951 208.084 36.1979 208.507C35.8041 208.927 35.2523 209.137 34.5427 209.137C33.9144 209.137 33.4017 208.963 33.0046 208.615C32.6074 208.266 32.3812 207.785 32.3259 207.169H33.1804C33.2357 207.576 33.3806 207.884 33.6149 208.092C33.8493 208.297 34.1586 208.4 34.5427 208.4C34.9626 208.4 35.2914 208.257 35.529 207.97C35.7699 207.684 35.8903 207.288 35.8903 206.784C35.8903 206.308 35.7601 205.928 35.4997 205.641C35.2425 205.351 34.8991 205.207 34.4694 205.207C34.0755 205.207 33.7663 205.293 33.5417 205.465L33.3024 205.661L32.5798 205.475ZM42.238 206.007C42.238 207.065 42.0573 207.851 41.696 208.366C41.3347 208.88 40.7699 209.137 40.0017 209.137C39.2432 209.137 38.6817 208.887 38.3171 208.385C37.9525 207.881 37.7637 207.129 37.7507 206.129V204.923C37.7507 203.878 37.9313 203.102 38.2927 202.594C38.654 202.086 39.2204 201.833 39.9919 201.833C40.7569 201.833 41.32 202.078 41.6813 202.57C42.0427 203.058 42.2282 203.813 42.238 204.836V206.007ZM41.3347 204.772C41.3347 204.007 41.2272 203.45 41.0124 203.102C40.7976 202.751 40.4574 202.575 39.9919 202.575C39.5297 202.575 39.1927 202.749 38.9811 203.097C38.7696 203.446 38.6605 203.981 38.654 204.704V206.149C38.654 206.917 38.7647 207.485 38.986 207.853C39.2106 208.218 39.5492 208.4 40.0017 208.4C40.4476 208.4 40.778 208.227 40.9929 207.882C41.211 207.537 41.3249 206.994 41.3347 206.252V204.772Z" fill="#959BAF"/>
<path d="M50.3789 204.558V64.0361" stroke="#F1F4FB"/>
<path d="M136.379 204.558V64.0361" stroke="#F1F4FB"/>
<path d="M221.323 204.558V64.0361" stroke="#F1F4FB"/>
<path d="M307.323 204.558V64.0361" stroke="#F1F4FB"/>
<path d="M393.191 204.558V64.0361" stroke="#F1F4FB"/>
<path d="M50.3789 103.413C50.3789 103.413 82.807 75.2315 116.779 75.2315C151.524 75.2315 153.068 127.348 187.04 127.348C221.785 127.348 221.785 108.818 255.757 108.818C289.729 108.818 289.729 187.572 324.474 187.572C358.446 187.572 393.191 84.1106 393.191 84.1106" stroke="#4996D1" stroke-width="3"/>
<path d="M50.3789 103.413C50.3789 103.413 82.807 75.2315 116.779 75.2315C151.524 75.2315 153.068 127.348 187.04 127.348C221.785 127.348 221.785 108.818 255.757 108.818C289.729 108.818 289.729 187.572 324.474 187.572C358.446 187.572 393.191 84.1106 393.191 84.1106" stroke="url(#paint0_linear_2_160)" stroke-opacity="0.4" stroke-width="3"/>
<path d="M47.2905 103.734C47.2905 104.553 47.6159 105.338 48.1951 105.917C48.7743 106.497 49.5598 106.822 50.3789 106.822C51.198 106.822 51.9836 106.497 52.5627 105.917C53.1419 105.338 53.4673 104.553 53.4673 103.734C53.4673 102.914 53.1419 102.129 52.5627 101.55C51.9836 100.971 51.198 100.645 50.3789 100.645C49.5598 100.645 48.7743 100.971 48.1951 101.55C47.6159 102.129 47.2905 102.914 47.2905 103.734Z" fill="#4996D1"/>
<path d="M47.2905 103.734C47.2905 104.553 47.6159 105.338 48.1951 105.917C48.7743 106.497 49.5598 106.822 50.3789 106.822C51.198 106.822 51.9836 106.497 52.5627 105.917C53.1419 105.338 53.4673 104.553 53.4673 103.734C53.4673 102.914 53.1419 102.129 52.5627 101.55C51.9836 100.971 51.198 100.645 50.3789 100.645C49.5598 100.645 48.7743 100.971 48.1951 101.55C47.6159 102.129 47.2905 102.914 47.2905 103.734Z" fill="#589FE0" fill-opacity="0.4"/>
<path d="M218 118.088C218 118.907 218.325 119.693 218.905 120.272C219.484 120.851 220.269 121.177 221.088 121.177C221.907 121.177 222.693 120.851 223.272 120.272C223.851 119.693 224.177 118.907 224.177 118.088C224.177 117.269 223.851 116.484 223.272 115.905C222.693 115.325 221.907 115 221.088 115C220.269 115 219.484 115.325 218.905 115.905C218.325 116.484 218 117.269 218 118.088Z" fill="#4996D1"/>
<path d="M218 118.088C218 118.907 218.325 119.693 218.905 120.272C219.484 120.851 220.269 121.177 221.088 121.177C221.907 121.177 222.693 120.851 223.272 120.272C223.851 119.693 224.177 118.907 224.177 118.088C224.177 117.269 223.851 116.484 223.272 115.905C222.693 115.325 221.907 115 221.088 115C220.269 115 219.484 115.325 218.905 115.905C218.325 116.484 218 117.269 218 118.088Z" fill="#6994DF"/>
<path d="M305 180.088C305 180.907 305.325 181.693 305.905 182.272C306.484 182.851 307.269 183.177 308.088 183.177C308.907 183.177 309.693 182.851 310.272 182.272C310.851 181.693 311.177 180.907 311.177 180.088C311.177 179.269 310.851 178.484 310.272 177.905C309.693 177.325 308.907 177 308.088 177C307.269 177 306.484 177.325 305.905 177.905C305.325 178.484 305 179.269 305 180.088Z" fill="#507CD2"/>
<path d="M390.102 84.4118C390.102 85.2309 390.428 86.0164 391.007 86.5956C391.586 87.1748 392.372 87.5002 393.191 87.5002C394.01 87.5002 394.795 87.1748 395.375 86.5956C395.954 86.0164 396.279 85.2309 396.279 84.4118C396.279 83.5927 395.954 82.8071 395.375 82.228C394.795 81.6488 394.01 81.3234 393.191 81.3234C392.372 81.3234 391.586 81.6488 391.007 82.228C390.428 82.8071 390.102 83.5927 390.102 84.4118Z" fill="#4996D1"/>
<path d="M390.102 84.4118C390.102 85.2309 390.428 86.0164 391.007 86.5956C391.586 87.1748 392.372 87.5002 393.191 87.5002C394.01 87.5002 394.795 87.1748 395.375 86.5956C395.954 86.0164 396.279 85.2309 396.279 84.4118C396.279 83.5927 395.954 82.8071 395.375 82.228C394.795 81.6488 394.01 81.3234 393.191 81.3234C392.372 81.3234 391.586 81.6488 391.007 82.228C390.428 82.8071 390.102 83.5927 390.102 84.4118Z" fill="#507CD2"/>
<path d="M133 82C133 82.7956 133.316 83.5587 133.879 84.1213C134.441 84.6839 135.204 85 136 85C136.796 85 137.559 84.6839 138.121 84.1213C138.684 83.5587 139 82.7956 139 82C139 81.2044 138.684 80.4413 138.121 79.8787C137.559 79.3161 136.796 79 136 79C135.204 79 134.441 79.3161 133.879 79.8787C133.316 80.4413 133 81.2044 133 82Z" fill="#589FE0"/>
<path d="M395.328 31.7909C395.262 31.9216 395.138 32 395.002 32C394.866 32 394.742 31.9216 394.676 31.7909L393.049 28.6318C392.984 28.5011 392.984 28.3399 393.049 28.2091C393.115 28.0784 393.24 28 393.376 28H396.624C396.76 28 396.885 28.0784 396.951 28.2091C397.016 28.3399 397.016 28.5011 396.951 28.6318L395.328 31.7909Z" fill="#989EAF"/>
<defs>
<linearGradient id="paint0_linear_2_160" x1="126.152" y1="75.2313" x2="350.952" y2="79.501" gradientUnits="userSpaceOnUse">
<stop stop-color="#6EACF6"/>
<stop offset="0.420549" stop-color="#A685F3"/>
<stop offset="0.628891" stop-color="#B366D7"/>
<stop offset="0.858067" stop-color="#5A54D1"/>
</linearGradient>
</defs>
</svg>
