<svg width="42" height="19" viewBox="0 0 42 19" fill="none" xmlns="http://www.w3.org/2000/svg">
<path d="M6.7025 2.74783C6.7025 1.17429 5.43381 0 3.73425 0C2.03469 0 0.766 1.17429 0.766 2.74783C0.766 4.32138 2.03469 5.49567 3.73425 5.49567C5.45775 5.49567 6.7025 4.32138 6.7025 2.74783ZM0.957499 14.4438C0.957499 17.3325 0.933562 17.7318 0.406937 17.8257L0 17.8962V18.6242C2.44162 18.5068 5.05081 18.5068 7.46849 18.6242V17.8962L7.06156 17.8257C6.53493 17.7318 6.511 17.3325 6.511 14.4438V11.1792C6.511 9.95797 6.53493 7.67985 6.60675 6.38813L6.36737 6.17676C4.4045 6.55253 2.681 6.62299 0 6.62299V7.35105L0.215437 7.39802C0.957499 7.56242 0.957499 8.07911 0.957499 11.7664V14.4438Z" fill="white"/>
<path d="M14.6004 7.0927C15.4861 7.0927 16.1802 9.11248 16.6351 11.1557L17.0899 11.2967C18.8612 11.1792 19.9863 10.3572 19.9863 9.089C19.9863 7.58591 18.191 6.17676 15.3903 6.17676C11.8954 6.17676 8.66387 8.78368 8.66387 13.0111C8.66387 16.6044 11.2012 19 14.5764 19C17.0659 19 19.2203 17.4265 20.4411 14.6551L20.1299 14.3498C19.1964 14.9839 18.3825 15.1953 17.6644 15.1953C15.4142 15.1953 13.6668 12.8467 13.6668 8.78368C13.6668 7.63288 14.0259 7.0927 14.6004 7.0927Z" fill="white"/>
<path d="M21.2282 12.6354C21.2282 16.3226 23.8374 19 28.0265 19C31.9522 19 35.0881 16.5575 35.0881 12.5414C35.0881 8.85414 32.5028 6.17676 28.3137 6.17676C24.388 6.17676 21.2282 8.61928 21.2282 12.6354ZM29.5346 15.4302C29.5346 17.1446 29.2712 18.0841 28.7686 18.0841C27.7392 18.0841 26.8057 13.2225 26.8057 9.7466C26.8057 8.03214 27.069 7.0927 27.5717 7.0927C28.601 7.0927 29.5346 11.9308 29.5346 15.4302Z" fill="white"/>
<path d="M42 16.1817C42 14.5847 40.7553 13.3869 39.0796 13.3869C37.4279 13.3869 36.1593 14.5847 36.1593 16.1817C36.1593 17.8022 37.4279 19 39.0796 19C40.7792 19 42 17.8022 42 16.1817Z" fill="white"/>
</svg>
