<svg width="99" height="20" viewBox="0 0 99 20" fill="none" xmlns="http://www.w3.org/2000/svg">
<path fill-rule="evenodd" clip-rule="evenodd" d="M14.6717 7.70056L12.5952 3.4875C11.7147 1.69627 10.672 0.998658 8.88103 0.998658H2.35118C2.17004 0.984485 1.98801 1.01022 1.81761 1.0741C1.6472 1.13798 1.49245 1.23849 1.36398 1.36872C1.23551 1.49896 1.13637 1.65584 1.07336 1.82859C1.01034 2.00134 0.984955 2.18587 0.998936 2.3695V18.5881C0.984895 18.7716 1.01027 18.956 1.0733 19.1287C1.13633 19.3013 1.23553 19.458 1.36406 19.588C1.49259 19.718 1.6474 19.8182 1.81781 19.8817C1.98822 19.9452 2.17019 19.9706 2.35118 19.9559H8.66167C10.6359 19.9559 11.7238 19.2979 12.5441 17.6133L14.6897 13.2571C15.138 12.4267 15.3803 11.4983 15.3959 10.5519C15.402 9.55394 15.1525 8.57142 14.6717 7.70056ZM8.69172 17.2142H3.70343V3.74035H8.66768C9.58721 3.74035 9.72844 3.74035 10.1702 4.65424L12.1174 8.69062L12.2076 8.87644C12.5108 9.39015 12.6775 9.97476 12.6914 10.5732C12.6699 11.0944 12.5212 11.6021 12.2586 12.0507L10.1822 16.3156C9.80056 17.1137 9.63829 17.2142 8.69172 17.2142ZM34.5885 11.7755C34.4181 11.8394 34.2361 11.8651 34.0549 11.8509H25.7612V17.2155H34.0549C34.2364 17.2013 34.4187 17.2271 34.5893 17.2911C34.7599 17.3552 34.9148 17.456 35.0434 17.5865C35.1719 17.7171 35.271 17.8744 35.3338 18.0475C35.3966 18.2206 35.4216 18.4055 35.4072 18.5894C35.4212 18.7729 35.3959 18.9573 35.3328 19.1299C35.2698 19.3025 35.1706 19.4593 35.0421 19.5893C34.9135 19.7193 34.7587 19.8195 34.5883 19.883C34.4179 19.9465 34.2359 19.9718 34.0549 19.9572H24.4089C24.2279 19.9718 24.046 19.9465 23.8755 19.883C23.7051 19.8195 23.5503 19.7193 23.4218 19.5893C23.2933 19.4593 23.1941 19.3025 23.131 19.1299C23.068 18.9573 23.0426 18.7729 23.0567 18.5894V10.4831C23.0417 10.2991 23.0664 10.114 23.129 9.94066C23.1916 9.7673 23.2907 9.60981 23.4193 9.47912C23.548 9.34842 23.7031 9.24765 23.874 9.18378C24.0449 9.11991 24.2274 9.09447 24.4089 9.10923H34.0549C34.2362 9.09453 34.4184 9.11991 34.5891 9.1836C34.7597 9.24729 34.9147 9.34779 35.0433 9.47814C35.1719 9.60849 35.271 9.76558 35.3338 9.93857C35.3967 10.1116 35.4217 10.2963 35.4072 10.4801C35.4212 10.6637 35.3958 10.8482 35.3328 11.021C35.2698 11.1937 35.1706 11.3506 35.0421 11.4809C34.9137 11.6111 34.7589 11.7116 34.5885 11.7755ZM34.0549 3.74161H24.4089C24.2275 3.75684 24.0451 3.73184 23.8742 3.66833C23.7033 3.60483 23.5481 3.50435 23.4194 3.37388C23.2907 3.24342 23.1916 3.0861 23.129 2.91286C23.0663 2.73963 23.0416 2.55465 23.0567 2.37077C23.0422 2.18701 23.0672 2.00226 23.13 1.82927C23.1929 1.65628 23.292 1.49918 23.4206 1.36883C23.5492 1.23848 23.7041 1.13798 23.8748 1.07429C24.0454 1.0106 24.2277 0.985225 24.4089 0.999924H34.0549C34.2365 0.985167 34.419 1.0106 34.5899 1.07447C34.7607 1.13834 34.9159 1.23912 35.0445 1.36981C35.1731 1.5005 35.2722 1.65799 35.3348 1.83135C35.3975 2.00472 35.4221 2.18982 35.4072 2.37382C35.4212 2.55733 35.3959 2.74174 35.3328 2.91436C35.2698 3.08697 35.1706 3.24368 35.0421 3.37369C34.9135 3.5037 34.7587 3.60391 34.5883 3.66743C34.4179 3.73095 34.2359 3.75626 34.0549 3.74161ZM55.4926 17.2155H49.6359C48.6112 17.2155 48.4549 17.1637 48.0222 16.262L46.0148 12.122L45.9878 12.0642C45.708 11.6055 45.5525 11.0801 45.537 10.541C45.5447 9.928 45.7093 9.32754 46.0148 8.7985L48.0642 4.6555C48.4849 3.80862 48.5841 3.7416 49.5397 3.7416H55.4926C55.6719 3.74983 55.851 3.72008 56.0184 3.65426C56.1857 3.58843 56.3377 3.48797 56.4647 3.35928C56.5916 3.23059 56.6907 3.07649 56.7557 2.90682C56.8206 2.73715 56.8499 2.55562 56.8418 2.37381C56.8547 2.19056 56.8286 2.00665 56.7655 1.83446C56.7023 1.66227 56.6035 1.50581 56.4756 1.37562C56.3477 1.24543 56.1938 1.14453 56.0243 1.07972C55.8547 1.01491 55.6734 0.987699 55.4926 0.999916H49.4826C47.5955 0.999916 46.5347 1.67011 45.6933 3.39432L43.5237 7.81758C43.0606 8.65379 42.8272 9.60054 42.8476 10.5593C42.8524 11.4629 43.0774 12.3514 43.5027 13.1456L45.6723 17.5932C46.4806 19.2565 47.5834 19.9633 49.3654 19.9633H55.5046C55.6838 19.971 55.8627 19.941 56.0299 19.875C56.197 19.809 56.3488 19.7085 56.4757 19.5799C56.6025 19.4513 56.7016 19.2974 56.7667 19.1279C56.8318 18.9585 56.8615 18.7772 56.8538 18.5955C56.8673 18.4108 56.8413 18.2253 56.7777 18.0517C56.714 17.878 56.6142 17.7204 56.485 17.5894C56.3558 17.4584 56.2003 17.3572 56.029 17.2927C55.8578 17.2282 55.6748 17.2018 55.4926 17.2155ZM76.9482 1.08218H64.5226C64.3414 1.06801 64.1594 1.09375 63.989 1.15763C63.8186 1.22151 63.6638 1.32202 63.5354 1.45225C63.4069 1.58249 63.3077 1.73937 63.2447 1.91212C63.1817 2.08487 63.1563 2.26939 63.1703 2.45303C63.1563 2.63666 63.1817 2.82119 63.2447 2.99394C63.3077 3.16669 63.4069 3.32357 63.5354 3.45381C63.6638 3.58404 63.8186 3.68455 63.989 3.74843C64.1594 3.81231 64.3414 3.83805 64.5226 3.82387H69.3876V18.5894C69.3876 18.953 69.5301 19.3016 69.7837 19.5587C70.0373 19.8158 70.3812 19.9602 70.7399 19.9602C71.0985 19.9602 71.4425 19.8158 71.6961 19.5587C71.9497 19.3016 72.0921 18.953 72.0921 18.5894V3.82387H76.9542C77.1352 3.83811 77.3171 3.81239 77.4874 3.74849C77.6577 3.68459 77.8123 3.58402 77.9405 3.45373C78.0688 3.32343 78.1676 3.1665 78.2303 2.99374C78.2929 2.82098 78.3179 2.63651 78.3034 2.45303C78.318 2.269 78.2929 2.08396 78.2299 1.91073C78.1669 1.73751 78.0675 1.58024 77.9386 1.44984C77.8097 1.31944 77.6543 1.21901 77.4833 1.15553C77.3123 1.09204 77.1297 1.06702 76.9482 1.08218ZM96.1111 7.60442L98.8937 18.1721C98.9649 18.3398 98.9997 18.5211 98.9956 18.7036C98.9915 18.8861 98.9486 19.0656 98.8699 19.2298C98.7912 19.394 98.6785 19.5391 98.5395 19.6552C98.4004 19.7713 98.2384 19.8556 98.0643 19.9024C97.8944 19.9635 97.7157 19.9954 97.5354 19.9969C97.26 19.9957 96.9927 19.9021 96.7753 19.7307C96.5578 19.5593 96.4025 19.3198 96.3334 19.0495L94.9421 13.758H86.3419L84.9475 19.0525C84.8916 19.224 84.8028 19.3826 84.6862 19.5192C84.5696 19.6557 84.4275 19.7676 84.2682 19.8484C84.1088 19.9291 83.9352 19.9771 83.7575 19.9897C83.5798 20.0022 83.4013 19.979 83.2324 19.9214C83.0636 19.8638 82.9076 19.7729 82.7735 19.654C82.6394 19.5351 82.5298 19.3905 82.4509 19.2285C82.3721 19.0665 82.3256 18.8904 82.3142 18.7101C82.3028 18.5299 82.3266 18.3491 82.3843 18.1782L85.1639 7.6227L86.3058 3.43706C86.8227 1.83469 88.1449 1 90.1011 1H91.1709C93.1422 1 94.4553 1.83469 94.9692 3.41573L96.1111 7.60442ZM87.0601 11.0194H94.2149L93.3405 7.70191L92.475 4.61903C92.2437 3.88487 92.0123 3.74169 91.0116 3.74169H90.2634C89.2657 3.74169 89.0464 3.88182 88.7999 4.62512L87.9345 7.70191L87.0601 11.0194Z" fill="#4996D1"/>
<path fill-rule="evenodd" clip-rule="evenodd" d="M14.6717 7.70056L12.5952 3.4875C11.7147 1.69627 10.672 0.998658 8.88103 0.998658H2.35118C2.17004 0.984485 1.98801 1.01022 1.81761 1.0741C1.6472 1.13798 1.49245 1.23849 1.36398 1.36872C1.23551 1.49896 1.13637 1.65584 1.07336 1.82859C1.01034 2.00134 0.984955 2.18587 0.998936 2.3695V18.5881C0.984895 18.7716 1.01027 18.956 1.0733 19.1287C1.13633 19.3013 1.23553 19.458 1.36406 19.588C1.49259 19.718 1.6474 19.8182 1.81781 19.8817C1.98822 19.9452 2.17019 19.9706 2.35118 19.9559H8.66167C10.6359 19.9559 11.7238 19.2979 12.5441 17.6133L14.6897 13.2571C15.138 12.4267 15.3803 11.4983 15.3959 10.5519C15.402 9.55394 15.1525 8.57142 14.6717 7.70056ZM8.69172 17.2142H3.70343V3.74035H8.66768C9.58721 3.74035 9.72844 3.74035 10.1702 4.65424L12.1174 8.69062L12.2076 8.87644C12.5108 9.39015 12.6775 9.97476 12.6914 10.5732C12.6699 11.0944 12.5212 11.6021 12.2586 12.0507L10.1822 16.3156C9.80056 17.1137 9.63829 17.2142 8.69172 17.2142ZM34.5885 11.7755C34.4181 11.8394 34.2361 11.8651 34.0549 11.8509H25.7612V17.2155H34.0549C34.2364 17.2013 34.4187 17.2271 34.5893 17.2911C34.7599 17.3552 34.9148 17.456 35.0434 17.5865C35.1719 17.7171 35.271 17.8744 35.3338 18.0475C35.3966 18.2206 35.4216 18.4055 35.4072 18.5894C35.4212 18.7729 35.3959 18.9573 35.3328 19.1299C35.2698 19.3025 35.1706 19.4593 35.0421 19.5893C34.9135 19.7193 34.7587 19.8195 34.5883 19.883C34.4179 19.9465 34.2359 19.9718 34.0549 19.9572H24.4089C24.2279 19.9718 24.046 19.9465 23.8755 19.883C23.7051 19.8195 23.5503 19.7193 23.4218 19.5893C23.2933 19.4593 23.1941 19.3025 23.131 19.1299C23.068 18.9573 23.0426 18.7729 23.0567 18.5894V10.4831C23.0417 10.2991 23.0664 10.114 23.129 9.94066C23.1916 9.7673 23.2907 9.60981 23.4193 9.47912C23.548 9.34842 23.7031 9.24765 23.874 9.18378C24.0449 9.11991 24.2274 9.09447 24.4089 9.10923H34.0549C34.2362 9.09453 34.4184 9.11991 34.5891 9.1836C34.7597 9.24729 34.9147 9.34779 35.0433 9.47814C35.1719 9.60849 35.271 9.76558 35.3338 9.93857C35.3967 10.1116 35.4217 10.2963 35.4072 10.4801C35.4212 10.6637 35.3958 10.8482 35.3328 11.021C35.2698 11.1937 35.1706 11.3506 35.0421 11.4809C34.9137 11.6111 34.7589 11.7116 34.5885 11.7755ZM34.0549 3.74161H24.4089C24.2275 3.75684 24.0451 3.73184 23.8742 3.66833C23.7033 3.60483 23.5481 3.50435 23.4194 3.37388C23.2907 3.24342 23.1916 3.0861 23.129 2.91286C23.0663 2.73963 23.0416 2.55465 23.0567 2.37077C23.0422 2.18701 23.0672 2.00226 23.13 1.82927C23.1929 1.65628 23.292 1.49918 23.4206 1.36883C23.5492 1.23848 23.7041 1.13798 23.8748 1.07429C24.0454 1.0106 24.2277 0.985225 24.4089 0.999924H34.0549C34.2365 0.985167 34.419 1.0106 34.5899 1.07447C34.7607 1.13834 34.9159 1.23912 35.0445 1.36981C35.1731 1.5005 35.2722 1.65799 35.3348 1.83135C35.3975 2.00472 35.4221 2.18982 35.4072 2.37382C35.4212 2.55733 35.3959 2.74174 35.3328 2.91436C35.2698 3.08697 35.1706 3.24368 35.0421 3.37369C34.9135 3.5037 34.7587 3.60391 34.5883 3.66743C34.4179 3.73095 34.2359 3.75626 34.0549 3.74161ZM55.4926 17.2155H49.6359C48.6112 17.2155 48.4549 17.1637 48.0222 16.262L46.0148 12.122L45.9878 12.0642C45.708 11.6055 45.5525 11.0801 45.537 10.541C45.5447 9.928 45.7093 9.32754 46.0148 8.7985L48.0642 4.6555C48.4849 3.80862 48.5841 3.7416 49.5397 3.7416H55.4926C55.6719 3.74983 55.851 3.72008 56.0184 3.65426C56.1857 3.58843 56.3377 3.48797 56.4647 3.35928C56.5916 3.23059 56.6907 3.07649 56.7557 2.90682C56.8206 2.73715 56.8499 2.55562 56.8418 2.37381C56.8547 2.19056 56.8286 2.00665 56.7655 1.83446C56.7023 1.66227 56.6035 1.50581 56.4756 1.37562C56.3477 1.24543 56.1938 1.14453 56.0243 1.07972C55.8547 1.01491 55.6734 0.987699 55.4926 0.999916H49.4826C47.5955 0.999916 46.5347 1.67011 45.6933 3.39432L43.5237 7.81758C43.0606 8.65379 42.8272 9.60054 42.8476 10.5593C42.8524 11.4629 43.0774 12.3514 43.5027 13.1456L45.6723 17.5932C46.4806 19.2565 47.5834 19.9633 49.3654 19.9633H55.5046C55.6838 19.971 55.8627 19.941 56.0299 19.875C56.197 19.809 56.3488 19.7085 56.4757 19.5799C56.6025 19.4513 56.7016 19.2974 56.7667 19.1279C56.8318 18.9585 56.8615 18.7772 56.8538 18.5955C56.8673 18.4108 56.8413 18.2253 56.7777 18.0517C56.714 17.878 56.6142 17.7204 56.485 17.5894C56.3558 17.4584 56.2003 17.3572 56.029 17.2927C55.8578 17.2282 55.6748 17.2018 55.4926 17.2155ZM76.9482 1.08218H64.5226C64.3414 1.06801 64.1594 1.09375 63.989 1.15763C63.8186 1.22151 63.6638 1.32202 63.5354 1.45225C63.4069 1.58249 63.3077 1.73937 63.2447 1.91212C63.1817 2.08487 63.1563 2.26939 63.1703 2.45303C63.1563 2.63666 63.1817 2.82119 63.2447 2.99394C63.3077 3.16669 63.4069 3.32357 63.5354 3.45381C63.6638 3.58404 63.8186 3.68455 63.989 3.74843C64.1594 3.81231 64.3414 3.83805 64.5226 3.82387H69.3876V18.5894C69.3876 18.953 69.5301 19.3016 69.7837 19.5587C70.0373 19.8158 70.3812 19.9602 70.7399 19.9602C71.0985 19.9602 71.4425 19.8158 71.6961 19.5587C71.9497 19.3016 72.0921 18.953 72.0921 18.5894V3.82387H76.9542C77.1352 3.83811 77.3171 3.81239 77.4874 3.74849C77.6577 3.68459 77.8123 3.58402 77.9405 3.45373C78.0688 3.32343 78.1676 3.1665 78.2303 2.99374C78.2929 2.82098 78.3179 2.63651 78.3034 2.45303C78.318 2.269 78.2929 2.08396 78.2299 1.91073C78.1669 1.73751 78.0675 1.58024 77.9386 1.44984C77.8097 1.31944 77.6543 1.21901 77.4833 1.15553C77.3123 1.09204 77.1297 1.06702 76.9482 1.08218ZM96.1111 7.60442L98.8937 18.1721C98.9649 18.3398 98.9997 18.5211 98.9956 18.7036C98.9915 18.8861 98.9486 19.0656 98.8699 19.2298C98.7912 19.394 98.6785 19.5391 98.5395 19.6552C98.4004 19.7713 98.2384 19.8556 98.0643 19.9024C97.8944 19.9635 97.7157 19.9954 97.5354 19.9969C97.26 19.9957 96.9927 19.9021 96.7753 19.7307C96.5578 19.5593 96.4025 19.3198 96.3334 19.0495L94.9421 13.758H86.3419L84.9475 19.0525C84.8916 19.224 84.8028 19.3826 84.6862 19.5192C84.5696 19.6557 84.4275 19.7676 84.2682 19.8484C84.1088 19.9291 83.9352 19.9771 83.7575 19.9897C83.5798 20.0022 83.4013 19.979 83.2324 19.9214C83.0636 19.8638 82.9076 19.7729 82.7735 19.654C82.6394 19.5351 82.5298 19.3905 82.4509 19.2285C82.3721 19.0665 82.3256 18.8904 82.3142 18.7101C82.3028 18.5299 82.3266 18.3491 82.3843 18.1782L85.1639 7.6227L86.3058 3.43706C86.8227 1.83469 88.1449 1 90.1011 1H91.1709C93.1422 1 94.4553 1.83469 94.9692 3.41573L96.1111 7.60442ZM87.0601 11.0194H94.2149L93.3405 7.70191L92.475 4.61903C92.2437 3.88487 92.0123 3.74169 91.0116 3.74169H90.2634C89.2657 3.74169 89.0464 3.88182 88.7999 4.62512L87.9345 7.70191L87.0601 11.0194Z" fill="url(#paint0_linear_1_2)"/>
<defs>
<linearGradient id="paint0_linear_1_2" x1="22.6566" y1="0.994842" x2="86.8781" y2="3.05635" gradientUnits="userSpaceOnUse">
<stop stop-color="#6EACF6"/>
<stop offset="0.84375" stop-color="#A685F3"/>
</linearGradient>
</defs>
</svg>
