<svg width="98" height="19" viewBox="0 0 98 19" fill="none" xmlns="http://www.w3.org/2000/svg">
<path d="M54.4926 16.2155H48.6359C47.6112 16.2155 47.4549 16.1637 47.0222 15.262L45.0148 11.122L44.9878 11.0642C44.708 10.6055 44.5525 10.0801 44.537 9.54099C44.5447 8.928 44.7093 8.32754 45.0148 7.7985L47.0642 3.6555C47.4849 2.80862 47.5841 2.7416 48.5397 2.7416H54.4926C54.6719 2.74983 54.851 2.72008 55.0184 2.65426C55.1857 2.58843 55.3377 2.48797 55.4647 2.35928C55.5916 2.23059 55.6907 2.07649 55.7557 1.90682C55.8206 1.73715 55.8499 1.55562 55.8418 1.37381C55.8547 1.19056 55.8286 1.00665 55.7655 0.834459C55.7023 0.662273 55.6035 0.505813 55.4756 0.375621C55.3477 0.245429 55.1938 0.14453 55.0243 0.0797209C54.8547 0.014912 54.6734 -0.0123007 54.4926 -8.39049e-05H48.4826C46.5955 -8.39049e-05 45.5347 0.670107 44.6933 2.39432L42.5237 6.81758C42.0607 7.65379 41.8272 8.60054 41.8476 9.55927C41.8524 10.4629 42.0774 11.3514 42.5027 12.1456L44.6723 16.5932C45.4806 18.2565 46.5834 18.9633 48.3654 18.9633H54.5046C54.6838 18.971 54.8627 18.941 55.0299 18.875C55.197 18.809 55.3488 18.7085 55.4757 18.5799C55.6025 18.4513 55.7016 18.2974 55.7667 18.1279C55.8318 17.9585 55.8615 17.7772 55.8538 17.5955C55.8673 17.4108 55.8413 17.2253 55.7777 17.0517C55.714 16.878 55.6142 16.7204 55.485 16.5894C55.3558 16.4584 55.2003 16.3572 55.029 16.2927C54.8578 16.2282 54.6748 16.2018 54.4926 16.2155Z" fill="white"/>
<path d="M54.4926 16.2155H48.6359C47.6112 16.2155 47.4549 16.1637 47.0222 15.262L45.0148 11.122L44.9878 11.0642C44.708 10.6055 44.5525 10.0801 44.537 9.54099C44.5447 8.928 44.7093 8.32754 45.0148 7.7985L47.0642 3.6555C47.4849 2.80862 47.5841 2.7416 48.5397 2.7416H54.4926C54.6719 2.74983 54.851 2.72008 55.0184 2.65426C55.1857 2.58843 55.3377 2.48797 55.4647 2.35928C55.5916 2.23059 55.6907 2.07649 55.7557 1.90682C55.8206 1.73715 55.8499 1.55562 55.8418 1.37381C55.8547 1.19056 55.8286 1.00665 55.7655 0.834459C55.7023 0.662273 55.6035 0.505813 55.4756 0.375621C55.3477 0.245429 55.1938 0.14453 55.0243 0.0797209C54.8547 0.014912 54.6734 -0.0123007 54.4926 -8.39049e-05H48.4826C46.5955 -8.39049e-05 45.5347 0.670107 44.6933 2.39432L42.5237 6.81758C42.0607 7.65379 41.8272 8.60054 41.8476 9.55927C41.8524 10.4629 42.0774 11.3514 42.5027 12.1456L44.6723 16.5932C45.4806 18.2565 46.5834 18.9633 48.3654 18.9633H54.5046C54.6838 18.971 54.8627 18.941 55.0299 18.875C55.197 18.809 55.3488 18.7085 55.4757 18.5799C55.6025 18.4513 55.7016 18.2974 55.7667 18.1279C55.8318 17.9585 55.8615 17.7772 55.8538 17.5955C55.8673 17.4108 55.8413 17.2253 55.7777 17.0517C55.714 16.878 55.6142 16.7204 55.485 16.5894C55.3558 16.4584 55.2003 16.3572 55.029 16.2927C54.8578 16.2282 54.6748 16.2018 54.4926 16.2155Z" fill="white" fill-opacity="0.4"/>
<path d="M75.9482 0.0821847H63.5225C63.3414 0.0680118 63.1594 0.0937485 62.989 0.157628C62.8186 0.221507 62.6638 0.322015 62.5353 0.452251C62.4069 0.582488 62.3077 0.739367 62.2447 0.912116C62.1817 1.08487 62.1563 1.26939 62.1703 1.45303C62.1563 1.63666 62.1817 1.82119 62.2447 1.99394C62.3077 2.16669 62.4069 2.32357 62.5353 2.45381C62.6638 2.58404 62.8186 2.68455 62.989 2.74843C63.1594 2.81231 63.3414 2.83805 63.5225 2.82387H68.3876V17.5894C68.3876 17.953 68.5301 18.3016 68.7837 18.5587C69.0373 18.8158 69.3812 18.9602 69.7399 18.9602C70.0985 18.9602 70.4425 18.8158 70.6961 18.5587C70.9497 18.3016 71.0921 17.953 71.0921 17.5894V2.82387H75.9542C76.1352 2.83811 76.3171 2.81239 76.4874 2.74849C76.6577 2.68459 76.8123 2.58402 76.9405 2.45373C77.0688 2.32343 77.1676 2.1665 77.2303 1.99374C77.2929 1.82098 77.3179 1.63651 77.3034 1.45303C77.318 1.269 77.2929 1.08396 77.2299 0.910732C77.1669 0.737508 77.0675 0.580245 76.9386 0.449841C76.8097 0.319438 76.6543 0.219014 76.4833 0.155529C76.3123 0.0920448 76.1297 0.0670184 75.9482 0.0821847Z" fill="white"/>
<path d="M75.9482 0.0821847H63.5225C63.3414 0.0680118 63.1594 0.0937485 62.989 0.157628C62.8186 0.221507 62.6638 0.322015 62.5353 0.452251C62.4069 0.582488 62.3077 0.739367 62.2447 0.912116C62.1817 1.08487 62.1563 1.26939 62.1703 1.45303C62.1563 1.63666 62.1817 1.82119 62.2447 1.99394C62.3077 2.16669 62.4069 2.32357 62.5353 2.45381C62.6638 2.58404 62.8186 2.68455 62.989 2.74843C63.1594 2.81231 63.3414 2.83805 63.5225 2.82387H68.3876V17.5894C68.3876 17.953 68.5301 18.3016 68.7837 18.5587C69.0373 18.8158 69.3812 18.9602 69.7399 18.9602C70.0985 18.9602 70.4425 18.8158 70.6961 18.5587C70.9497 18.3016 71.0921 17.953 71.0921 17.5894V2.82387H75.9542C76.1352 2.83811 76.3171 2.81239 76.4874 2.74849C76.6577 2.68459 76.8123 2.58402 76.9405 2.45373C77.0688 2.32343 77.1676 2.1665 77.2303 1.99374C77.2929 1.82098 77.3179 1.63651 77.3034 1.45303C77.318 1.269 77.2929 1.08396 77.2299 0.910732C77.1669 0.737508 77.0675 0.580245 76.9386 0.449841C76.8097 0.319438 76.6543 0.219014 76.4833 0.155529C76.3123 0.0920448 76.1297 0.0670184 75.9482 0.0821847Z" fill="white" fill-opacity="0.4"/>
<path d="M33.0549 10.8509C33.2361 10.8651 33.4181 10.8394 33.5885 10.7755C33.7589 10.7116 33.9137 10.6111 34.0421 10.4809C34.1706 10.3506 34.2698 10.1937 34.3328 10.021C34.3958 9.84824 34.4212 9.66371 34.4072 9.48008C34.4217 9.29632 34.3967 9.11156 34.3338 8.93857C34.271 8.76558 34.1719 8.60849 34.0433 8.47814C33.9147 8.34779 33.7597 8.24729 33.5891 8.1836C33.4185 8.11991 33.2362 8.09453 33.0549 8.10923H23.4089C23.2274 8.09447 23.0449 8.11991 22.874 8.18378C22.7031 8.24765 22.548 8.34842 22.4193 8.47912C22.2907 8.60981 22.1916 8.7673 22.129 8.94066C22.0664 9.11403 22.0417 9.29912 22.0567 9.48312V17.5894C22.0426 17.7729 22.068 17.9573 22.131 18.1299C22.1941 18.3025 22.2933 18.4593 22.4218 18.5893C22.5503 18.7193 22.7051 18.8195 22.8755 18.883C23.046 18.9465 23.2279 18.9718 23.4089 18.9572H33.0549C33.2359 18.9718 33.4179 18.9465 33.5883 18.883C33.7587 18.8195 33.9135 18.7193 34.0421 18.5893C34.1706 18.4593 34.2698 18.3025 34.3328 18.1299C34.3959 17.9573 34.4212 17.7729 34.4072 17.5894C34.4216 17.4055 34.3966 17.2206 34.3338 17.0475C34.271 16.8744 34.1719 16.7171 34.0434 16.5865C33.9148 16.456 33.7599 16.3552 33.5893 16.2911C33.4187 16.2271 33.2364 16.2013 33.0549 16.2155H24.7612V10.8509H33.0549ZM23.4089 2.74161H33.0549C33.2359 2.75626 33.4179 2.73095 33.5883 2.66743C33.7587 2.60391 33.9135 2.5037 34.0421 2.37369C34.1706 2.24368 34.2698 2.08697 34.3328 1.91436C34.3959 1.74174 34.4212 1.55733 34.4072 1.37382C34.4221 1.18982 34.3975 1.00472 34.3348 0.831354C34.2722 0.657989 34.1732 0.500502 34.0445 0.369809C33.9159 0.239116 33.7608 0.138342 33.5899 0.074473C33.419 0.0106038 33.2365 -0.0148334 33.0549 -7.56001e-05H23.4089C23.2277 -0.014775 23.0454 0.0105986 22.8748 0.0742918C22.7041 0.137985 22.5492 0.238479 22.4206 0.368829C22.292 0.499179 22.1929 0.656277 22.13 0.829267C22.0672 1.00226 22.0422 1.18701 22.0567 1.37077C22.0417 1.55465 22.0663 1.73963 22.129 1.91286C22.1916 2.0861 22.2907 2.24342 22.4194 2.37388C22.5481 2.50435 22.7033 2.60483 22.8742 2.66833C23.0451 2.73184 23.2275 2.75684 23.4089 2.74161Z" fill="white"/>
<path d="M33.0549 10.8509C33.2361 10.8651 33.4181 10.8394 33.5885 10.7755C33.7589 10.7116 33.9137 10.6111 34.0421 10.4809C34.1706 10.3506 34.2698 10.1937 34.3328 10.021C34.3958 9.84824 34.4212 9.66371 34.4072 9.48008C34.4217 9.29632 34.3967 9.11156 34.3338 8.93857C34.271 8.76558 34.1719 8.60849 34.0433 8.47814C33.9147 8.34779 33.7597 8.24729 33.5891 8.1836C33.4185 8.11991 33.2362 8.09453 33.0549 8.10923H23.4089C23.2274 8.09447 23.0449 8.11991 22.874 8.18378C22.7031 8.24765 22.548 8.34842 22.4193 8.47912C22.2907 8.60981 22.1916 8.7673 22.129 8.94066C22.0664 9.11403 22.0417 9.29912 22.0567 9.48312V17.5894C22.0426 17.7729 22.068 17.9573 22.131 18.1299C22.1941 18.3025 22.2933 18.4593 22.4218 18.5893C22.5503 18.7193 22.7051 18.8195 22.8755 18.883C23.046 18.9465 23.2279 18.9718 23.4089 18.9572H33.0549C33.2359 18.9718 33.4179 18.9465 33.5883 18.883C33.7587 18.8195 33.9135 18.7193 34.0421 18.5893C34.1706 18.4593 34.2698 18.3025 34.3328 18.1299C34.3959 17.9573 34.4212 17.7729 34.4072 17.5894C34.4216 17.4055 34.3966 17.2206 34.3338 17.0475C34.271 16.8744 34.1719 16.7171 34.0434 16.5865C33.9148 16.456 33.7599 16.3552 33.5893 16.2911C33.4187 16.2271 33.2364 16.2013 33.0549 16.2155H24.7612V10.8509H33.0549ZM23.4089 2.74161H33.0549C33.2359 2.75626 33.4179 2.73095 33.5883 2.66743C33.7587 2.60391 33.9135 2.5037 34.0421 2.37369C34.1706 2.24368 34.2698 2.08697 34.3328 1.91436C34.3959 1.74174 34.4212 1.55733 34.4072 1.37382C34.4221 1.18982 34.3975 1.00472 34.3348 0.831354C34.2722 0.657989 34.1732 0.500502 34.0445 0.369809C33.9159 0.239116 33.7608 0.138342 33.5899 0.074473C33.419 0.0106038 33.2365 -0.0148334 33.0549 -7.56001e-05H23.4089C23.2277 -0.014775 23.0454 0.0105986 22.8748 0.0742918C22.7041 0.137985 22.5492 0.238479 22.4206 0.368829C22.292 0.499179 22.1929 0.656277 22.13 0.829267C22.0672 1.00226 22.0422 1.18701 22.0567 1.37077C22.0417 1.55465 22.0663 1.73963 22.129 1.91286C22.1916 2.0861 22.2907 2.24342 22.4194 2.37388C22.5481 2.50435 22.7033 2.60483 22.8742 2.66833C23.0451 2.73184 23.2275 2.75684 23.4089 2.74161Z" fill="white" fill-opacity="0.4"/>
<path d="M13.6717 6.70056L11.5952 2.4875C10.7147 0.696265 9.67201 -0.00134212 7.88104 -0.00134212H1.35119C1.17004 -0.0155151 0.988018 0.0102217 0.817612 0.0741008C0.647206 0.13798 0.492455 0.238488 0.363986 0.368725C0.235517 0.498961 0.136372 0.65584 0.0733593 0.828589C0.0103467 1.00134 -0.0150408 1.18587 -0.00106018 1.3695V17.5881C-0.015101 17.7716 0.0102697 17.956 0.0733038 18.1287C0.136338 18.3013 0.235537 18.458 0.364066 18.588C0.492596 18.718 0.6474 18.8182 0.817813 18.8817C0.988226 18.9452 1.1702 18.9706 1.35119 18.9559H7.66167C9.63595 18.9559 10.7238 18.2979 11.5441 16.6133L13.6897 12.2571C14.138 11.4267 14.3803 10.4983 14.3959 9.55192C14.402 8.55394 14.1525 7.57142 13.6717 6.70056ZM7.69172 16.2142H2.70343V2.74035H7.66768C8.58721 2.74035 8.72845 2.74035 9.17018 3.65424L11.1174 7.69062L11.2076 7.87644C11.5108 8.39015 11.6775 8.97476 11.6914 9.57324C11.6699 10.0944 11.5212 10.6021 11.2586 11.0507L9.1822 15.3156C8.80056 16.1137 8.6383 16.2142 7.69172 16.2142Z" fill="white"/>
<path d="M13.6717 6.70056L11.5952 2.4875C10.7147 0.696265 9.67201 -0.00134212 7.88104 -0.00134212H1.35119C1.17004 -0.0155151 0.988018 0.0102217 0.817612 0.0741008C0.647206 0.13798 0.492455 0.238488 0.363986 0.368725C0.235517 0.498961 0.136372 0.65584 0.0733593 0.828589C0.0103467 1.00134 -0.0150408 1.18587 -0.00106018 1.3695V17.5881C-0.015101 17.7716 0.0102697 17.956 0.0733038 18.1287C0.136338 18.3013 0.235537 18.458 0.364066 18.588C0.492596 18.718 0.6474 18.8182 0.817813 18.8817C0.988226 18.9452 1.1702 18.9706 1.35119 18.9559H7.66167C9.63595 18.9559 10.7238 18.2979 11.5441 16.6133L13.6897 12.2571C14.138 11.4267 14.3803 10.4983 14.3959 9.55192C14.402 8.55394 14.1525 7.57142 13.6717 6.70056ZM7.69172 16.2142H2.70343V2.74035H7.66768C8.58721 2.74035 8.72845 2.74035 9.17018 3.65424L11.1174 7.69062L11.2076 7.87644C11.5108 8.39015 11.6775 8.97476 11.6914 9.57324C11.6699 10.0944 11.5212 10.6021 11.2586 11.0507L9.1822 15.3156C8.80056 16.1137 8.6383 16.2142 7.69172 16.2142Z" fill="white" fill-opacity="0.4"/>
<path d="M97.8937 17.1721L95.1111 6.60442L93.9692 2.41573C93.4553 0.834692 92.1422 0 90.1709 0H89.1011C87.1449 0 85.8227 0.834692 85.3058 2.43706L84.1639 6.6227L81.3843 17.1782C81.3266 17.3491 81.3028 17.5299 81.3142 17.7101C81.3257 17.8904 81.3721 18.0665 81.4509 18.2285C81.5298 18.3905 81.6394 18.5351 81.7735 18.654C81.9076 18.7729 82.0636 18.8638 82.2325 18.9214C82.4013 18.979 82.5798 19.0022 82.7575 18.9897C82.9352 18.9771 83.1088 18.9291 83.2682 18.8484C83.4275 18.7676 83.5696 18.6557 83.6862 18.5192C83.8028 18.3826 83.8916 18.224 83.9475 18.0525L85.3419 12.758H93.9421L95.3335 18.0495C95.4025 18.3198 95.5578 18.5593 95.7753 18.7307C95.9927 18.9021 96.26 18.9957 96.5354 18.9969C96.7157 18.9954 96.8944 18.9635 97.0643 18.9024C97.2384 18.8556 97.4005 18.7713 97.5395 18.6552C97.6785 18.5391 97.7912 18.394 97.8699 18.2298C97.9486 18.0656 97.9915 17.8861 97.9956 17.7036C97.9997 17.5211 97.9649 17.3398 97.8937 17.1721ZM93.2149 10.0194H86.0601L86.9345 6.70191L87.7999 3.62512C88.0464 2.88182 88.2657 2.74169 89.2634 2.74169H90.0116C91.0123 2.74169 91.2437 2.88487 91.475 3.61903L92.3405 6.70191L93.2149 10.0194Z" fill="white"/>
<path d="M97.8937 17.1721L95.1111 6.60442L93.9692 2.41573C93.4553 0.834692 92.1422 0 90.1709 0H89.1011C87.1449 0 85.8227 0.834692 85.3058 2.43706L84.1639 6.6227L81.3843 17.1782C81.3266 17.3491 81.3028 17.5299 81.3142 17.7101C81.3257 17.8904 81.3721 18.0665 81.4509 18.2285C81.5298 18.3905 81.6394 18.5351 81.7735 18.654C81.9076 18.7729 82.0636 18.8638 82.2325 18.9214C82.4013 18.979 82.5798 19.0022 82.7575 18.9897C82.9352 18.9771 83.1088 18.9291 83.2682 18.8484C83.4275 18.7676 83.5696 18.6557 83.6862 18.5192C83.8028 18.3826 83.8916 18.224 83.9475 18.0525L85.3419 12.758H93.9421L95.3335 18.0495C95.4025 18.3198 95.5578 18.5593 95.7753 18.7307C95.9927 18.9021 96.26 18.9957 96.5354 18.9969C96.7157 18.9954 96.8944 18.9635 97.0643 18.9024C97.2384 18.8556 97.4005 18.7713 97.5395 18.6552C97.6785 18.5391 97.7912 18.394 97.8699 18.2298C97.9486 18.0656 97.9915 17.8861 97.9956 17.7036C97.9997 17.5211 97.9649 17.3398 97.8937 17.1721ZM93.2149 10.0194H86.0601L86.9345 6.70191L87.7999 3.62512C88.0464 2.88182 88.2657 2.74169 89.2634 2.74169H90.0116C91.0123 2.74169 91.2437 2.88487 91.475 3.61903L92.3405 6.70191L93.2149 10.0194Z" fill="white" fill-opacity="0.4"/>
</svg>
