<svg width="39" height="27" viewBox="0 0 39 27" fill="none" xmlns="http://www.w3.org/2000/svg">
<path d="M39 16.8848L8.80039 26.3622L0 2.40554L31.704 0.637939L39 16.8848Z" fill="white"/>
<path d="M16.1719 12.0709C16.1719 12.6727 16.0214 13.1992 15.7582 13.6881C15.4949 14.1394 15.1188 14.5531 14.6299 14.854C14.141 15.1548 13.5393 15.3805 12.8623 15.5309C12.1854 15.6814 11.4332 15.7566 10.5682 15.7566H9.96646V18.8405H6.05518V8.57336H10.6434C12.3734 8.57336 13.7273 8.87423 14.7051 9.43835C15.6829 10.0025 16.1719 10.9051 16.1719 12.0709ZM12.411 12.1086C12.411 11.206 11.7341 10.7547 10.4178 10.7547H9.92885V13.5001H10.3802C11.0195 13.5001 11.546 13.3872 11.8845 13.1616C12.223 12.9736 12.411 12.5975 12.411 12.1086ZM25.8749 18.8405C25.2731 18.9533 24.5962 19.0285 23.8064 19.0285C22.7157 19.0285 21.7379 18.9157 20.9105 18.6524C20.0455 18.3892 19.331 18.0507 18.7292 17.5994C18.1275 17.1481 17.6762 16.584 17.3753 15.9446C17.0745 15.2677 16.924 14.5531 16.924 13.7633C16.924 12.9736 17.0745 12.259 17.4129 11.582C17.7564 10.9289 18.23 10.3529 18.8045 9.88966C19.4062 9.43835 20.1208 9.06227 20.9481 8.79901C21.7755 8.53575 22.6781 8.42293 23.656 8.42293C24.4081 8.42293 25.1227 8.46053 25.762 8.57336C26.4014 8.72379 26.4014 8.72379 26.8903 8.91184V11.6573C26.5142 11.4316 26.0629 11.2436 25.574 11.1307C25.0851 10.9803 24.5586 10.9051 24.032 10.9051C23.1294 10.9051 22.4149 11.1683 21.8507 11.6196C21.2866 12.1086 21.0234 12.7855 21.0234 13.7257C21.0234 14.177 21.0986 14.5907 21.2866 14.9668C21.4747 15.3053 21.7003 15.6061 22.0012 15.8318C22.302 16.0574 22.6405 16.2455 23.0542 16.3583C23.4679 16.4711 23.8816 16.5464 24.3329 16.5464C24.7842 16.5464 25.2731 16.5088 25.7244 16.3959C26.1757 16.2831 26.6646 16.1703 27.1535 15.9446V18.5396L25.8749 18.8405ZM28.7707 8.57336H32.7196V18.8781H28.7707V8.57336ZM33.1333 5.33903C33.1333 6.01598 32.9076 6.58011 32.4563 6.95619C32.005 7.33228 31.4409 7.55793 30.764 7.55793C30.087 7.55793 29.5229 7.36989 29.0716 6.95619C28.6203 6.58011 28.3946 6.01598 28.3946 5.33903C28.3946 4.62447 28.6203 4.09795 29.0716 3.68426C29.5229 3.27056 30.087 3.08252 30.764 3.08252C31.4409 3.08252 32.005 3.27056 32.4563 3.68426C32.9076 4.06034 33.1333 4.62447 33.1333 5.33903Z" fill="#374DBA"/>
</svg>
