<svg width="44" height="15" viewBox="0 0 44 15" fill="none" xmlns="http://www.w3.org/2000/svg">
<path d="M19.0972 13.9661H15.525L17.7576 0.245174H21.3302L19.0972 13.9661ZM12.5198 0.245174L9.11411 9.68254L8.71112 7.65031L8.71148 7.65104L7.50947 1.48059C7.50947 1.48059 7.36413 0.245174 5.81491 0.245174H0.184717L0.118652 0.477502C0.118652 0.477502 1.84038 0.83572 3.85535 2.04581L6.95893 13.9665H10.681L16.3644 0.245174H12.5198ZM40.6175 13.9661H43.8976L41.0377 0.244807H38.1661C36.8401 0.244807 36.5171 1.26734 36.5171 1.26734L31.1893 13.9661H34.9132L35.6579 11.928H40.1991L40.6175 13.9661ZM36.6866 9.11254L38.5636 3.97784L39.6195 9.11254H36.6866ZM31.4686 3.54474L31.9784 0.598253C31.9784 0.598253 30.4053 0 28.7655 0C26.9927 0 22.7829 0.774794 22.7829 4.54233C22.7829 8.08707 27.7238 8.13111 27.7238 9.99304C27.7238 11.855 23.292 11.5213 21.8294 10.3472L21.2983 13.428C21.2983 13.428 22.8934 14.2028 25.3305 14.2028C27.7683 14.2028 31.4459 12.9406 31.4459 9.50526C31.4459 5.93776 26.4605 5.6056 26.4605 4.05455C26.4609 2.50312 29.9399 2.70242 31.4686 3.54474Z" fill="white"/>
</svg>
